<svg width="50" height="50" viewBox="0 0 50 50" fill="none" xmlns="http://www.w3.org/2000/svg">
<path d="M5 5H45V45H5V5Z" fill="#DBDBDB"/>
<path d="M15 16H20V21H15V16Z" fill="#494949"/>
<path d="M10 11H15V16H10V11Z" fill="#494949"/>
<path d="M30 30H35V35H30V30Z" fill="#494949"/>
<path d="M35 35H40V40H35V35Z" fill="#494949"/>
<path d="M15 30H20V35H15V30Z" fill="#494949"/>
<path d="M10 35H15V40H10V35Z" fill="#494949"/>
<path d="M30 16H35V21H30V16Z" fill="#494949"/>
<path d="M20 21H30V30H20V21Z" fill="#494949"/>
<path d="M35 11H40V16H35V11Z" fill="#494949"/>
<path d="M0 0H50V5H0V0Z" fill="#494949"/>
<path d="M0 45H50V50H0V45Z" fill="#494949"/>
<path d="M5 5V45H0V5H5Z" fill="#494949"/>
<path d="M50 5V45H45V5H50Z" fill="#494949"/>
<path d="M40 11H45V45H40V11Z" fill="#A2A2A2"/>
<path d="M40 40V45H10V40H40Z" fill="#A2A2A2"/>
<path d="M40 5V11H5L5 5H40Z" fill="#FBFBFB"/>
<path d="M10 40H5L5 11H10V40Z" fill="#FBFBFB"/>
<path d="M5 40H10V45H5L5 40Z" fill="#DBDBDB"/>
<path d="M40 5H45V11H40V5Z" fill="#DBDBDB"/>
</svg>
