<svg width="237" height="156" viewBox="0 0 237 156" fill="none" xmlns="http://www.w3.org/2000/svg">
<rect x="2.5" y="2.5" width="232" height="151" fill="#A5A5A5" stroke="#7B7B7B" stroke-width="5"/>
<rect width="4.07512" height="5" transform="matrix(1 0 0 -1 10 39)" fill="#D6D6D6"/>
<rect width="4.07512" height="5" transform="matrix(1 0 0 -1 10 29)" fill="#D6D6D6"/>
<rect width="5.0939" height="5" transform="matrix(1 0 0 -1 19.168 39)" fill="#D6D6D6"/>
<rect width="5.0939" height="5" transform="matrix(1 0 0 -1 57.8828 39)" fill="#D6D6D6"/>
<rect width="5.0939" height="5" transform="matrix(1 0 0 -1 96.5977 39)" fill="#D6D6D6"/>
<rect width="5.0939" height="5" transform="matrix(1 0 0 -1 135.309 39)" fill="#D6D6D6"/>
<rect width="5.0939" height="5" transform="matrix(1 0 0 -1 174.023 39)" fill="#D6D6D6"/>
<rect width="5.0939" height="5" transform="matrix(1 0 0 -1 212.738 39)" fill="#D6D6D6"/>
<rect width="5.0939" height="5" transform="matrix(1 0 0 -1 38.5273 39)" fill="#D6D6D6"/>
<rect width="5.0939" height="5" transform="matrix(1 0 0 -1 77.2383 39)" fill="#D6D6D6"/>
<rect width="5.0939" height="5" transform="matrix(1 0 0 -1 115.953 39)" fill="#D6D6D6"/>
<rect width="5.0939" height="5" transform="matrix(1 0 0 -1 154.668 39)" fill="#D6D6D6"/>
<rect width="5.0939" height="5" transform="matrix(1 0 0 -1 193.379 39)" fill="#D6D6D6"/>
<rect width="5.0939" height="5" transform="matrix(1 0 0 -1 19.168 29)" fill="#D6D6D6"/>
<rect width="5.0939" height="5" transform="matrix(1 0 0 -1 57.8828 29)" fill="#D6D6D6"/>
<rect width="5.0939" height="5" transform="matrix(1 0 0 -1 96.5977 29)" fill="#D6D6D6"/>
<rect width="5.0939" height="5" transform="matrix(1 0 0 -1 135.309 29)" fill="#D6D6D6"/>
<rect width="5.0939" height="5" transform="matrix(1 0 0 -1 174.023 29)" fill="#D6D6D6"/>
<rect width="5.0939" height="5" transform="matrix(1 0 0 -1 212.738 29)" fill="#D6D6D6"/>
<rect width="5.0939" height="5" transform="matrix(1 0 0 -1 38.5273 29)" fill="#D6D6D6"/>
<rect width="5.0939" height="5" transform="matrix(1 0 0 -1 77.2383 29)" fill="#D6D6D6"/>
<rect width="5.0939" height="5" transform="matrix(1 0 0 -1 115.953 29)" fill="#D6D6D6"/>
<rect width="5.0939" height="5" transform="matrix(1 0 0 -1 154.668 29)" fill="#D6D6D6"/>
<rect width="5.0939" height="5" transform="matrix(1 0 0 -1 193.379 29)" fill="#D6D6D6"/>
<rect width="4.07512" height="5" transform="matrix(1 0 0 -1 29.3555 39)" fill="#D6D6D6"/>
<rect width="4.07512" height="5" transform="matrix(1 0 0 -1 68.0703 39)" fill="#D6D6D6"/>
<rect width="4.07512" height="5" transform="matrix(1 0 0 -1 106.785 39)" fill="#D6D6D6"/>
<rect width="4.07512" height="5" transform="matrix(1 0 0 -1 145.5 39)" fill="#D6D6D6"/>
<rect width="4.07512" height="5" transform="matrix(1 0 0 -1 184.211 39)" fill="#D6D6D6"/>
<rect width="4.07512" height="5" transform="matrix(1 0 0 -1 222.926 39)" fill="#D6D6D6"/>
<rect width="4.07512" height="5" transform="matrix(1 0 0 -1 48.7148 39)" fill="#D6D6D6"/>
<rect width="4.07512" height="5" transform="matrix(1 0 0 -1 87.4258 39)" fill="#D6D6D6"/>
<rect width="4.07512" height="5" transform="matrix(1 0 0 -1 126.141 39)" fill="#D6D6D6"/>
<rect width="4.07512" height="5" transform="matrix(1 0 0 -1 164.855 39)" fill="#D6D6D6"/>
<rect width="4.07512" height="5" transform="matrix(1 0 0 -1 203.566 39)" fill="#D6D6D6"/>
<rect width="4.07512" height="5" transform="matrix(1 0 0 -1 29.3555 29)" fill="#D6D6D6"/>
<rect width="4.07512" height="5" transform="matrix(1 0 0 -1 68.0703 29)" fill="#D6D6D6"/>
<rect width="4.07512" height="5" transform="matrix(1 0 0 -1 106.785 29)" fill="#D6D6D6"/>
<rect width="4.07512" height="5" transform="matrix(1 0 0 -1 145.5 29)" fill="#D6D6D6"/>
<rect width="4.07512" height="5" transform="matrix(1 0 0 -1 184.211 29)" fill="#D6D6D6"/>
<rect width="4.07512" height="5" transform="matrix(1 0 0 -1 222.926 29)" fill="#D6D6D6"/>
<rect width="4.07512" height="5" transform="matrix(1 0 0 -1 48.7148 29)" fill="#D6D6D6"/>
<rect width="4.07512" height="5" transform="matrix(1 0 0 -1 87.4258 29)" fill="#D6D6D6"/>
<rect width="4.07512" height="5" transform="matrix(1 0 0 -1 126.141 29)" fill="#D6D6D6"/>
<rect width="4.07512" height="5" transform="matrix(1 0 0 -1 164.855 29)" fill="#D6D6D6"/>
<rect width="4.07512" height="5" transform="matrix(1 0 0 -1 203.566 29)" fill="#D6D6D6"/>
<rect width="5.0939" height="5" transform="matrix(1 0 0 -1 14.0742 34)" fill="#D6D6D6"/>
<rect width="5.0939" height="5" transform="matrix(1 0 0 -1 52.7891 34)" fill="#D6D6D6"/>
<rect width="5.0939" height="5" transform="matrix(1 0 0 -1 91.5039 34)" fill="#D6D6D6"/>
<rect width="5.0939" height="5" transform="matrix(1 0 0 -1 130.215 34)" fill="#D6D6D6"/>
<rect width="5.0939" height="5" transform="matrix(1 0 0 -1 168.93 34)" fill="#D6D6D6"/>
<rect width="5.0939" height="5" transform="matrix(1 0 0 -1 207.645 34)" fill="#D6D6D6"/>
<rect width="5.0939" height="5" transform="matrix(1 0 0 -1 33.4336 34)" fill="#D6D6D6"/>
<rect width="5.0939" height="5" transform="matrix(1 0 0 -1 72.1445 34)" fill="#D6D6D6"/>
<rect width="5.0939" height="5" transform="matrix(1 0 0 -1 110.859 34)" fill="#D6D6D6"/>
<rect width="5.0939" height="5" transform="matrix(1 0 0 -1 149.574 34)" fill="#D6D6D6"/>
<rect width="5.0939" height="5" transform="matrix(1 0 0 -1 188.285 34)" fill="#D6D6D6"/>
<rect width="5.0939" height="5" transform="matrix(1 0 0 -1 24.2617 34)" fill="#D6D6D6"/>
<rect width="5.0939" height="5" transform="matrix(1 0 0 -1 62.9766 34)" fill="#D6D6D6"/>
<rect width="5.0939" height="5" transform="matrix(1 0 0 -1 101.691 34)" fill="#D6D6D6"/>
<rect width="5.0939" height="5" transform="matrix(1 0 0 -1 140.402 34)" fill="#D6D6D6"/>
<rect width="5.0939" height="5" transform="matrix(1 0 0 -1 179.117 34)" fill="#D6D6D6"/>
<rect width="5.0939" height="5" transform="matrix(1 0 0 -1 217.832 34)" fill="#D6D6D6"/>
<rect width="5.0939" height="5" transform="matrix(1 0 0 -1 43.6211 34)" fill="#D6D6D6"/>
<rect width="5.0939" height="5" transform="matrix(1 0 0 -1 82.332 34)" fill="#D6D6D6"/>
<rect width="5.0939" height="5" transform="matrix(1 0 0 -1 121.047 34)" fill="#D6D6D6"/>
<rect width="5.0939" height="5" transform="matrix(1 0 0 -1 159.762 34)" fill="#D6D6D6"/>
<rect width="5.0939" height="5" transform="matrix(1 0 0 -1 198.473 34)" fill="#D6D6D6"/>
<rect width="4.07512" height="5" transform="matrix(1 0 0 -1 10 34)" fill="#E7E7E7"/>
<rect width="5.0939" height="5" transform="matrix(1 0 0 -1 19.168 34)" fill="#E7E7E7"/>
<rect width="5.0939" height="5" transform="matrix(1 0 0 -1 57.8828 34)" fill="#E7E7E7"/>
<rect width="5.0939" height="5" transform="matrix(1 0 0 -1 96.5977 34)" fill="#E7E7E7"/>
<rect width="5.0939" height="5" transform="matrix(1 0 0 -1 135.309 34)" fill="#E7E7E7"/>
<rect width="5.0939" height="5" transform="matrix(1 0 0 -1 174.023 34)" fill="#E7E7E7"/>
<rect width="5.0939" height="5" transform="matrix(1 0 0 -1 212.738 34)" fill="#E7E7E7"/>
<rect width="5.0939" height="5" transform="matrix(1 0 0 -1 38.5273 34)" fill="#E7E7E7"/>
<rect width="5.0939" height="5" transform="matrix(1 0 0 -1 77.2383 34)" fill="#E7E7E7"/>
<rect width="5.0939" height="5" transform="matrix(1 0 0 -1 115.953 34)" fill="#E7E7E7"/>
<rect width="5.0939" height="5" transform="matrix(1 0 0 -1 154.668 34)" fill="#E7E7E7"/>
<rect width="5.0939" height="5" transform="matrix(1 0 0 -1 193.379 34)" fill="#E7E7E7"/>
<rect width="4.07512" height="5" transform="matrix(1 0 0 -1 29.3555 34)" fill="#E7E7E7"/>
<rect width="4.07512" height="5" transform="matrix(1 0 0 -1 68.0703 34)" fill="#E7E7E7"/>
<rect width="4.07512" height="5" transform="matrix(1 0 0 -1 106.785 34)" fill="#E7E7E7"/>
<rect width="4.07512" height="5" transform="matrix(1 0 0 -1 145.5 34)" fill="#E7E7E7"/>
<rect width="4.07512" height="5" transform="matrix(1 0 0 -1 184.211 34)" fill="#E7E7E7"/>
<rect width="4.07512" height="5" transform="matrix(1 0 0 -1 222.926 34)" fill="#E7E7E7"/>
<rect width="4.07512" height="5" transform="matrix(1 0 0 -1 48.7148 34)" fill="#E7E7E7"/>
<rect width="4.07512" height="5" transform="matrix(1 0 0 -1 87.4258 34)" fill="#E7E7E7"/>
<rect width="4.07512" height="5" transform="matrix(1 0 0 -1 126.141 34)" fill="#E7E7E7"/>
<rect width="4.07512" height="5" transform="matrix(1 0 0 -1 164.855 34)" fill="#E7E7E7"/>
<rect width="4.07512" height="5" transform="matrix(1 0 0 -1 203.566 34)" fill="#E7E7E7"/>
<rect width="5.0939" height="5" transform="matrix(1 0 0 -1 14.0742 39)" fill="#E7E7E7"/>
<rect width="5.0939" height="5" transform="matrix(1 0 0 -1 52.7891 39)" fill="#E7E7E7"/>
<rect width="5.0939" height="5" transform="matrix(1 0 0 -1 91.5039 39)" fill="#E7E7E7"/>
<rect width="5.0939" height="5" transform="matrix(1 0 0 -1 130.215 39)" fill="#E7E7E7"/>
<rect width="5.0939" height="5" transform="matrix(1 0 0 -1 168.93 39)" fill="#E7E7E7"/>
<rect width="5.0939" height="5" transform="matrix(1 0 0 -1 207.645 39)" fill="#E7E7E7"/>
<rect width="5.0939" height="5" transform="matrix(1 0 0 -1 33.4336 39)" fill="#E7E7E7"/>
<rect width="5.0939" height="5" transform="matrix(1 0 0 -1 72.1445 39)" fill="#E7E7E7"/>
<rect width="5.0939" height="5" transform="matrix(1 0 0 -1 110.859 39)" fill="#E7E7E7"/>
<rect width="5.0939" height="5" transform="matrix(1 0 0 -1 149.574 39)" fill="#E7E7E7"/>
<rect width="5.0939" height="5" transform="matrix(1 0 0 -1 188.285 39)" fill="#E7E7E7"/>
<rect width="5.0939" height="5" transform="matrix(1 0 0 -1 14.0742 29)" fill="#E7E7E7"/>
<rect width="5.0939" height="5" transform="matrix(1 0 0 -1 52.7891 29)" fill="#E7E7E7"/>
<rect width="5.0939" height="5" transform="matrix(1 0 0 -1 91.5039 29)" fill="#E7E7E7"/>
<rect width="5.0939" height="5" transform="matrix(1 0 0 -1 130.215 29)" fill="#E7E7E7"/>
<rect width="5.0939" height="5" transform="matrix(1 0 0 -1 168.93 29)" fill="#E7E7E7"/>
<rect width="5.0939" height="5" transform="matrix(1 0 0 -1 207.645 29)" fill="#E7E7E7"/>
<rect width="5.0939" height="5" transform="matrix(1 0 0 -1 33.4336 29)" fill="#E7E7E7"/>
<rect width="5.0939" height="5" transform="matrix(1 0 0 -1 72.1445 29)" fill="#E7E7E7"/>
<rect width="5.0939" height="5" transform="matrix(1 0 0 -1 110.859 29)" fill="#E7E7E7"/>
<rect width="5.0939" height="5" transform="matrix(1 0 0 -1 149.574 29)" fill="#E7E7E7"/>
<rect width="5.0939" height="5" transform="matrix(1 0 0 -1 188.285 29)" fill="#E7E7E7"/>
<rect width="5.0939" height="5" transform="matrix(1 0 0 -1 24.2617 39)" fill="#E7E7E7"/>
<rect width="5.0939" height="5" transform="matrix(1 0 0 -1 62.9766 39)" fill="#E7E7E7"/>
<rect width="5.0939" height="5" transform="matrix(1 0 0 -1 101.691 39)" fill="#E7E7E7"/>
<rect width="5.0939" height="5" transform="matrix(1 0 0 -1 140.402 39)" fill="#E7E7E7"/>
<rect width="5.0939" height="5" transform="matrix(1 0 0 -1 179.117 39)" fill="#E7E7E7"/>
<rect width="5.0939" height="5" transform="matrix(1 0 0 -1 217.832 39)" fill="#E7E7E7"/>
<rect width="5.0939" height="5" transform="matrix(1 0 0 -1 43.6211 39)" fill="#E7E7E7"/>
<rect width="5.0939" height="5" transform="matrix(1 0 0 -1 82.332 39)" fill="#E7E7E7"/>
<rect width="5.0939" height="5" transform="matrix(1 0 0 -1 121.047 39)" fill="#E7E7E7"/>
<rect width="5.0939" height="5" transform="matrix(1 0 0 -1 159.762 39)" fill="#E7E7E7"/>
<rect width="5.0939" height="5" transform="matrix(1 0 0 -1 198.473 39)" fill="#E7E7E7"/>
<rect width="5.0939" height="5" transform="matrix(1 0 0 -1 24.2617 29)" fill="#E7E7E7"/>
<rect width="5.0939" height="5" transform="matrix(1 0 0 -1 62.9766 29)" fill="#E7E7E7"/>
<rect width="5.0939" height="5" transform="matrix(1 0 0 -1 101.691 29)" fill="#E7E7E7"/>
<rect width="5.0939" height="5" transform="matrix(1 0 0 -1 140.402 29)" fill="#E7E7E7"/>
<rect width="5.0939" height="5" transform="matrix(1 0 0 -1 179.117 29)" fill="#E7E7E7"/>
<rect width="5.0939" height="5" transform="matrix(1 0 0 -1 217.832 29)" fill="#E7E7E7"/>
<rect width="5.0939" height="5" transform="matrix(1 0 0 -1 43.6211 29)" fill="#E7E7E7"/>
<rect width="5.0939" height="5" transform="matrix(1 0 0 -1 82.332 29)" fill="#E7E7E7"/>
<rect width="5.0939" height="5" transform="matrix(1 0 0 -1 121.047 29)" fill="#E7E7E7"/>
<rect width="5.0939" height="5" transform="matrix(1 0 0 -1 159.762 29)" fill="#E7E7E7"/>
<rect width="5.0939" height="5" transform="matrix(1 0 0 -1 198.473 29)" fill="#E7E7E7"/>
<rect width="4.07512" height="5" transform="matrix(1 0 0 -1 10 72)" fill="#C6C6C6"/>
<rect width="4.07512" height="5" transform="matrix(1 0 0 -1 87.4258 72)" fill="#C6C6C6"/>
<rect width="4.07512" height="5" transform="matrix(1 0 0 -1 164.855 72)" fill="#C6C6C6"/>
<rect width="4.07512" height="4" transform="matrix(1 0 0 -1 10 62)" fill="#C6C6C6"/>
<rect width="4.07512" height="4" transform="matrix(1 0 0 -1 87.4258 62)" fill="#C6C6C6"/>
<rect width="4.07512" height="4" transform="matrix(1 0 0 -1 164.855 62)" fill="#C6C6C6"/>
<rect width="5.0939" height="5" transform="matrix(1 0 0 -1 19.168 72)" fill="#C6C6C6"/>
<rect width="5.0939" height="5" transform="matrix(1 0 0 -1 96.5977 72)" fill="#C6C6C6"/>
<rect width="5.0939" height="5" transform="matrix(1 0 0 -1 174.023 72)" fill="#C6C6C6"/>
<rect width="5.0939" height="5" transform="matrix(1 0 0 -1 38.5273 72)" fill="#C6C6C6"/>
<rect width="5.0939" height="5" transform="matrix(1 0 0 -1 115.953 72)" fill="#C6C6C6"/>
<rect width="5.0939" height="5" transform="matrix(1 0 0 -1 193.379 72)" fill="#C6C6C6"/>
<rect width="5.0939" height="5" transform="matrix(1 0 0 -1 57.8828 72)" fill="#C6C6C6"/>
<rect width="5.0939" height="5" transform="matrix(1 0 0 -1 135.309 72)" fill="#C6C6C6"/>
<rect width="5.0939" height="5" transform="matrix(1 0 0 -1 212.738 72)" fill="#C6C6C6"/>
<rect width="5.0939" height="5" transform="matrix(1 0 0 -1 77.2383 72)" fill="#C6C6C6"/>
<rect width="5.0939" height="5" transform="matrix(1 0 0 -1 154.668 72)" fill="#C6C6C6"/>
<rect width="5.0939" height="4" transform="matrix(1 0 0 -1 19.168 62)" fill="#C6C6C6"/>
<rect width="5.0939" height="4" transform="matrix(1 0 0 -1 96.5977 62)" fill="#C6C6C6"/>
<rect width="5.0939" height="4" transform="matrix(1 0 0 -1 174.023 62)" fill="#C6C6C6"/>
<rect width="5.0939" height="4" transform="matrix(1 0 0 -1 38.5273 62)" fill="#C6C6C6"/>
<rect width="5.0939" height="4" transform="matrix(1 0 0 -1 115.953 62)" fill="#C6C6C6"/>
<rect width="5.0939" height="4" transform="matrix(1 0 0 -1 193.379 62)" fill="#C6C6C6"/>
<rect width="5.0939" height="4" transform="matrix(1 0 0 -1 57.8828 62)" fill="#C6C6C6"/>
<rect width="5.0939" height="4" transform="matrix(1 0 0 -1 135.309 62)" fill="#C6C6C6"/>
<rect width="5.0939" height="4" transform="matrix(1 0 0 -1 212.738 62)" fill="#C6C6C6"/>
<rect width="5.0939" height="4" transform="matrix(1 0 0 -1 77.2383 62)" fill="#C6C6C6"/>
<rect width="5.0939" height="4" transform="matrix(1 0 0 -1 154.668 62)" fill="#C6C6C6"/>
<rect width="4.07512" height="5" transform="matrix(1 0 0 -1 29.3555 72)" fill="#C6C6C6"/>
<rect width="4.07512" height="5" transform="matrix(1 0 0 -1 106.785 72)" fill="#C6C6C6"/>
<rect width="4.07512" height="5" transform="matrix(1 0 0 -1 184.211 72)" fill="#C6C6C6"/>
<rect width="4.07512" height="5" transform="matrix(1 0 0 -1 48.7148 72)" fill="#C6C6C6"/>
<rect width="4.07512" height="5" transform="matrix(1 0 0 -1 126.141 72)" fill="#C6C6C6"/>
<rect width="4.07512" height="5" transform="matrix(1 0 0 -1 203.566 72)" fill="#C6C6C6"/>
<rect width="4.07512" height="5" transform="matrix(1 0 0 -1 68.0703 72)" fill="#C6C6C6"/>
<rect width="4.07512" height="5" transform="matrix(1 0 0 -1 145.5 72)" fill="#C6C6C6"/>
<rect width="4.07512" height="5" transform="matrix(1 0 0 -1 222.926 72)" fill="#C6C6C6"/>
<rect width="4.07512" height="4" transform="matrix(1 0 0 -1 29.3555 62)" fill="#C6C6C6"/>
<rect width="4.07512" height="4" transform="matrix(1 0 0 -1 106.785 62)" fill="#C6C6C6"/>
<rect width="4.07512" height="4" transform="matrix(1 0 0 -1 184.211 62)" fill="#C6C6C6"/>
<rect width="4.07512" height="4" transform="matrix(1 0 0 -1 48.7148 62)" fill="#C6C6C6"/>
<rect width="4.07512" height="4" transform="matrix(1 0 0 -1 126.141 62)" fill="#C6C6C6"/>
<rect width="4.07512" height="4" transform="matrix(1 0 0 -1 203.566 62)" fill="#C6C6C6"/>
<rect width="4.07512" height="4" transform="matrix(1 0 0 -1 68.0703 62)" fill="#C6C6C6"/>
<rect width="4.07512" height="4" transform="matrix(1 0 0 -1 145.5 62)" fill="#C6C6C6"/>
<rect width="4.07512" height="4" transform="matrix(1 0 0 -1 222.926 62)" fill="#C6C6C6"/>
<rect width="5.0939" height="5" transform="matrix(1 0 0 -1 14.0742 67)" fill="#C6C6C6"/>
<rect width="5.0939" height="5" transform="matrix(1 0 0 -1 91.5039 67)" fill="#C6C6C6"/>
<rect width="5.0939" height="5" transform="matrix(1 0 0 -1 168.93 67)" fill="#C6C6C6"/>
<rect width="5.0939" height="5" transform="matrix(1 0 0 -1 33.4336 67)" fill="#C6C6C6"/>
<rect width="5.0939" height="5" transform="matrix(1 0 0 -1 110.859 67)" fill="#C6C6C6"/>
<rect width="5.0939" height="5" transform="matrix(1 0 0 -1 188.285 67)" fill="#C6C6C6"/>
<rect width="5.0939" height="5" transform="matrix(1 0 0 -1 52.7891 67)" fill="#C6C6C6"/>
<rect width="5.0939" height="5" transform="matrix(1 0 0 -1 130.215 67)" fill="#C6C6C6"/>
<rect width="5.0939" height="5" transform="matrix(1 0 0 -1 207.645 67)" fill="#C6C6C6"/>
<rect width="5.0939" height="5" transform="matrix(1 0 0 -1 72.1445 67)" fill="#C6C6C6"/>
<rect width="5.0939" height="5" transform="matrix(1 0 0 -1 149.574 67)" fill="#C6C6C6"/>
<rect width="5.0939" height="5" transform="matrix(1 0 0 -1 24.2617 67)" fill="#C6C6C6"/>
<rect width="5.0939" height="5" transform="matrix(1 0 0 -1 101.691 67)" fill="#C6C6C6"/>
<rect width="5.0939" height="5" transform="matrix(1 0 0 -1 179.117 67)" fill="#C6C6C6"/>
<rect width="5.0939" height="5" transform="matrix(1 0 0 -1 43.6211 67)" fill="#C6C6C6"/>
<rect width="5.0939" height="5" transform="matrix(1 0 0 -1 121.047 67)" fill="#C6C6C6"/>
<rect width="5.0939" height="5" transform="matrix(1 0 0 -1 198.473 67)" fill="#C6C6C6"/>
<rect width="5.0939" height="5" transform="matrix(1 0 0 -1 62.9766 67)" fill="#C6C6C6"/>
<rect width="5.0939" height="5" transform="matrix(1 0 0 -1 140.402 67)" fill="#C6C6C6"/>
<rect width="5.0939" height="5" transform="matrix(1 0 0 -1 217.832 67)" fill="#C6C6C6"/>
<rect width="5.0939" height="5" transform="matrix(1 0 0 -1 82.332 67)" fill="#C6C6C6"/>
<rect width="5.0939" height="5" transform="matrix(1 0 0 -1 159.762 67)" fill="#C6C6C6"/>
<rect width="4.07512" height="5" transform="matrix(1 0 0 -1 10 67)" fill="#D6D6D6"/>
<rect width="4.07512" height="5" transform="matrix(1 0 0 -1 87.4258 67)" fill="#D6D6D6"/>
<rect width="4.07512" height="5" transform="matrix(1 0 0 -1 164.855 67)" fill="#D6D6D6"/>
<rect width="5.0939" height="5" transform="matrix(1 0 0 -1 19.168 67)" fill="#D6D6D6"/>
<rect width="5.0939" height="5" transform="matrix(1 0 0 -1 96.5977 67)" fill="#D6D6D6"/>
<rect width="5.0939" height="5" transform="matrix(1 0 0 -1 174.023 67)" fill="#D6D6D6"/>
<rect width="5.0939" height="5" transform="matrix(1 0 0 -1 38.5273 67)" fill="#D6D6D6"/>
<rect width="5.0939" height="5" transform="matrix(1 0 0 -1 115.953 67)" fill="#D6D6D6"/>
<rect width="5.0939" height="5" transform="matrix(1 0 0 -1 193.379 67)" fill="#D6D6D6"/>
<rect width="5.0939" height="5" transform="matrix(1 0 0 -1 57.8828 67)" fill="#D6D6D6"/>
<rect width="5.0939" height="5" transform="matrix(1 0 0 -1 135.309 67)" fill="#D6D6D6"/>
<rect width="5.0939" height="5" transform="matrix(1 0 0 -1 212.738 67)" fill="#D6D6D6"/>
<rect width="5.0939" height="5" transform="matrix(1 0 0 -1 77.2383 67)" fill="#D6D6D6"/>
<rect width="5.0939" height="5" transform="matrix(1 0 0 -1 154.668 67)" fill="#D6D6D6"/>
<rect width="4.07512" height="5" transform="matrix(1 0 0 -1 29.3555 67)" fill="#D6D6D6"/>
<rect width="4.07512" height="5" transform="matrix(1 0 0 -1 106.785 67)" fill="#D6D6D6"/>
<rect width="4.07512" height="5" transform="matrix(1 0 0 -1 184.211 67)" fill="#D6D6D6"/>
<rect width="4.07512" height="5" transform="matrix(1 0 0 -1 48.7148 67)" fill="#D6D6D6"/>
<rect width="4.07512" height="5" transform="matrix(1 0 0 -1 126.141 67)" fill="#D6D6D6"/>
<rect width="4.07512" height="5" transform="matrix(1 0 0 -1 203.566 67)" fill="#D6D6D6"/>
<rect width="4.07512" height="5" transform="matrix(1 0 0 -1 68.0703 67)" fill="#D6D6D6"/>
<rect width="4.07512" height="5" transform="matrix(1 0 0 -1 145.5 67)" fill="#D6D6D6"/>
<rect width="4.07512" height="5" transform="matrix(1 0 0 -1 222.926 67)" fill="#D6D6D6"/>
<rect width="5.0939" height="5" transform="matrix(1 0 0 -1 14.0742 72)" fill="#D6D6D6"/>
<rect width="5.0939" height="5" transform="matrix(1 0 0 -1 91.5039 72)" fill="#D6D6D6"/>
<rect width="5.0939" height="5" transform="matrix(1 0 0 -1 168.93 72)" fill="#D6D6D6"/>
<rect width="5.0939" height="5" transform="matrix(1 0 0 -1 33.4336 72)" fill="#D6D6D6"/>
<rect width="5.0939" height="5" transform="matrix(1 0 0 -1 110.859 72)" fill="#D6D6D6"/>
<rect width="5.0939" height="5" transform="matrix(1 0 0 -1 188.285 72)" fill="#D6D6D6"/>
<rect width="5.0939" height="5" transform="matrix(1 0 0 -1 52.7891 72)" fill="#D6D6D6"/>
<rect width="5.0939" height="5" transform="matrix(1 0 0 -1 130.215 72)" fill="#D6D6D6"/>
<rect width="5.0939" height="5" transform="matrix(1 0 0 -1 207.645 72)" fill="#D6D6D6"/>
<rect width="5.0939" height="5" transform="matrix(1 0 0 -1 72.1445 72)" fill="#D6D6D6"/>
<rect width="5.0939" height="5" transform="matrix(1 0 0 -1 149.574 72)" fill="#D6D6D6"/>
<rect width="5.0939" height="4" transform="matrix(1 0 0 -1 14.0742 62)" fill="#D6D6D6"/>
<rect width="5.0939" height="4" transform="matrix(1 0 0 -1 91.5039 62)" fill="#D6D6D6"/>
<rect width="5.0939" height="4" transform="matrix(1 0 0 -1 168.93 62)" fill="#D6D6D6"/>
<rect width="5.0939" height="4" transform="matrix(1 0 0 -1 33.4336 62)" fill="#D6D6D6"/>
<rect width="5.0939" height="4" transform="matrix(1 0 0 -1 110.859 62)" fill="#D6D6D6"/>
<rect width="5.0939" height="4" transform="matrix(1 0 0 -1 188.285 62)" fill="#D6D6D6"/>
<rect width="5.0939" height="4" transform="matrix(1 0 0 -1 52.7891 62)" fill="#D6D6D6"/>
<rect width="5.0939" height="4" transform="matrix(1 0 0 -1 130.215 62)" fill="#D6D6D6"/>
<rect width="5.0939" height="4" transform="matrix(1 0 0 -1 207.645 62)" fill="#D6D6D6"/>
<rect width="5.0939" height="4" transform="matrix(1 0 0 -1 72.1445 62)" fill="#D6D6D6"/>
<rect width="5.0939" height="4" transform="matrix(1 0 0 -1 149.574 62)" fill="#D6D6D6"/>
<rect width="5.0939" height="5" transform="matrix(1 0 0 -1 24.2617 72)" fill="#D6D6D6"/>
<rect width="5.0939" height="5" transform="matrix(1 0 0 -1 101.691 72)" fill="#D6D6D6"/>
<rect width="5.0939" height="5" transform="matrix(1 0 0 -1 179.117 72)" fill="#D6D6D6"/>
<rect width="5.0939" height="5" transform="matrix(1 0 0 -1 43.6211 72)" fill="#D6D6D6"/>
<rect width="5.0939" height="5" transform="matrix(1 0 0 -1 121.047 72)" fill="#D6D6D6"/>
<rect width="5.0939" height="5" transform="matrix(1 0 0 -1 198.473 72)" fill="#D6D6D6"/>
<rect width="5.0939" height="5" transform="matrix(1 0 0 -1 62.9766 72)" fill="#D6D6D6"/>
<rect width="5.0939" height="5" transform="matrix(1 0 0 -1 140.402 72)" fill="#D6D6D6"/>
<rect width="5.0939" height="5" transform="matrix(1 0 0 -1 217.832 72)" fill="#D6D6D6"/>
<rect width="5.0939" height="5" transform="matrix(1 0 0 -1 82.332 72)" fill="#D6D6D6"/>
<rect width="5.0939" height="5" transform="matrix(1 0 0 -1 159.762 72)" fill="#D6D6D6"/>
<rect width="5.0939" height="4" transform="matrix(1 0 0 -1 24.2617 62)" fill="#D6D6D6"/>
<rect width="5.0939" height="4" transform="matrix(1 0 0 -1 101.691 62)" fill="#D6D6D6"/>
<rect width="5.0939" height="4" transform="matrix(1 0 0 -1 179.117 62)" fill="#D6D6D6"/>
<rect width="5.0939" height="4" transform="matrix(1 0 0 -1 43.6211 62)" fill="#D6D6D6"/>
<rect width="5.0939" height="4" transform="matrix(1 0 0 -1 121.047 62)" fill="#D6D6D6"/>
<rect width="5.0939" height="4" transform="matrix(1 0 0 -1 198.473 62)" fill="#D6D6D6"/>
<rect width="5.0939" height="4" transform="matrix(1 0 0 -1 62.9766 62)" fill="#D6D6D6"/>
<rect width="5.0939" height="4" transform="matrix(1 0 0 -1 140.402 62)" fill="#D6D6D6"/>
<rect width="5.0939" height="4" transform="matrix(1 0 0 -1 217.832 62)" fill="#D6D6D6"/>
<rect width="5.0939" height="4" transform="matrix(1 0 0 -1 82.332 62)" fill="#D6D6D6"/>
<rect width="5.0939" height="4" transform="matrix(1 0 0 -1 159.762 62)" fill="#D6D6D6"/>
<rect width="4.07512" height="5" transform="matrix(1 0 0 -1 10 101)" fill="#C6C6C6"/>
<rect width="4.07512" height="5" transform="matrix(1 0 0 -1 10 91)" fill="#C6C6C6"/>
<rect width="5.0939" height="5" transform="matrix(1 0 0 -1 19.168 101)" fill="#C6C6C6"/>
<rect width="5.0939" height="5" transform="matrix(1 0 0 -1 38.5273 101)" fill="#C6C6C6"/>
<rect width="5.0939" height="5" transform="matrix(1 0 0 -1 57.8828 101)" fill="#C6C6C6"/>
<rect width="5.0939" height="5" transform="matrix(1 0 0 -1 77.2383 101)" fill="#C6C6C6"/>
<rect width="5.0939" height="5" transform="matrix(1 0 0 -1 96.5977 101)" fill="#C6C6C6"/>
<rect width="5.0939" height="5" transform="matrix(1 0 0 -1 115.953 101)" fill="#C6C6C6"/>
<rect width="5.0939" height="5" transform="matrix(1 0 0 -1 135.309 101)" fill="#C6C6C6"/>
<rect width="5.0939" height="5" transform="matrix(1 0 0 -1 154.668 101)" fill="#C6C6C6"/>
<rect width="5.0939" height="5" transform="matrix(1 0 0 -1 174.023 101)" fill="#C6C6C6"/>
<rect width="5.0939" height="5" transform="matrix(1 0 0 -1 193.379 101)" fill="#C6C6C6"/>
<rect width="5.0939" height="5" transform="matrix(1 0 0 -1 212.738 101)" fill="#C6C6C6"/>
<rect width="5.0939" height="5" transform="matrix(1 0 0 -1 19.168 91)" fill="#C6C6C6"/>
<rect width="5.0939" height="5" transform="matrix(1 0 0 -1 38.5273 91)" fill="#C6C6C6"/>
<rect width="5.0939" height="5" transform="matrix(1 0 0 -1 57.8828 91)" fill="#C6C6C6"/>
<rect width="5.0939" height="5" transform="matrix(1 0 0 -1 77.2383 91)" fill="#C6C6C6"/>
<rect width="5.0939" height="5" transform="matrix(1 0 0 -1 96.5977 91)" fill="#C6C6C6"/>
<rect width="5.0939" height="5" transform="matrix(1 0 0 -1 115.953 91)" fill="#C6C6C6"/>
<rect width="5.0939" height="5" transform="matrix(1 0 0 -1 135.309 91)" fill="#C6C6C6"/>
<rect width="5.0939" height="5" transform="matrix(1 0 0 -1 154.668 91)" fill="#C6C6C6"/>
<rect width="5.0939" height="5" transform="matrix(1 0 0 -1 174.023 91)" fill="#C6C6C6"/>
<rect width="5.0939" height="5" transform="matrix(1 0 0 -1 193.379 91)" fill="#C6C6C6"/>
<rect width="5.0939" height="5" transform="matrix(1 0 0 -1 212.738 91)" fill="#C6C6C6"/>
<rect width="4.07512" height="5" transform="matrix(1 0 0 -1 29.3555 101)" fill="#C6C6C6"/>
<rect width="4.07512" height="5" transform="matrix(1 0 0 -1 48.7148 101)" fill="#C6C6C6"/>
<rect width="4.07512" height="5" transform="matrix(1 0 0 -1 68.0703 101)" fill="#C6C6C6"/>
<rect width="4.07512" height="5" transform="matrix(1 0 0 -1 87.4258 101)" fill="#C6C6C6"/>
<rect width="4.07512" height="5" transform="matrix(1 0 0 -1 106.785 101)" fill="#C6C6C6"/>
<rect width="4.07512" height="5" transform="matrix(1 0 0 -1 126.141 101)" fill="#C6C6C6"/>
<rect width="4.07512" height="5" transform="matrix(1 0 0 -1 145.5 101)" fill="#C6C6C6"/>
<rect width="4.07512" height="5" transform="matrix(1 0 0 -1 164.855 101)" fill="#C6C6C6"/>
<rect width="4.07512" height="5" transform="matrix(1 0 0 -1 184.211 101)" fill="#C6C6C6"/>
<rect width="4.07512" height="5" transform="matrix(1 0 0 -1 203.566 101)" fill="#C6C6C6"/>
<rect width="4.07512" height="5" transform="matrix(1 0 0 -1 222.926 101)" fill="#C6C6C6"/>
<rect width="4.07512" height="5" transform="matrix(1 0 0 -1 29.3555 91)" fill="#C6C6C6"/>
<rect width="4.07512" height="5" transform="matrix(1 0 0 -1 48.7148 91)" fill="#C6C6C6"/>
<rect width="4.07512" height="5" transform="matrix(1 0 0 -1 68.0703 91)" fill="#C6C6C6"/>
<rect width="4.07512" height="5" transform="matrix(1 0 0 -1 87.4258 91)" fill="#C6C6C6"/>
<rect width="4.07512" height="5" transform="matrix(1 0 0 -1 106.785 91)" fill="#C6C6C6"/>
<rect width="4.07512" height="5" transform="matrix(1 0 0 -1 126.141 91)" fill="#C6C6C6"/>
<rect width="4.07512" height="5" transform="matrix(1 0 0 -1 145.5 91)" fill="#C6C6C6"/>
<rect width="4.07512" height="5" transform="matrix(1 0 0 -1 164.855 91)" fill="#C6C6C6"/>
<rect width="4.07512" height="5" transform="matrix(1 0 0 -1 184.211 91)" fill="#C6C6C6"/>
<rect width="4.07512" height="5" transform="matrix(1 0 0 -1 203.566 91)" fill="#C6C6C6"/>
<rect width="4.07512" height="5" transform="matrix(1 0 0 -1 222.926 91)" fill="#C6C6C6"/>
<rect width="5.0939" height="5" transform="matrix(1 0 0 -1 14.0742 96)" fill="#C6C6C6"/>
<rect width="5.0939" height="5" transform="matrix(1 0 0 -1 33.4336 96)" fill="#C6C6C6"/>
<rect width="5.0939" height="5" transform="matrix(1 0 0 -1 52.7891 96)" fill="#C6C6C6"/>
<rect width="5.0939" height="5" transform="matrix(1 0 0 -1 72.1445 96)" fill="#C6C6C6"/>
<rect width="5.0939" height="5" transform="matrix(1 0 0 -1 91.5039 96)" fill="#C6C6C6"/>
<rect width="5.0939" height="5" transform="matrix(1 0 0 -1 110.859 96)" fill="#C6C6C6"/>
<rect width="5.0939" height="5" transform="matrix(1 0 0 -1 130.215 96)" fill="#C6C6C6"/>
<rect width="5.0939" height="5" transform="matrix(1 0 0 -1 149.574 96)" fill="#C6C6C6"/>
<rect width="5.0939" height="5" transform="matrix(1 0 0 -1 168.93 96)" fill="#C6C6C6"/>
<rect width="5.0939" height="5" transform="matrix(1 0 0 -1 188.285 96)" fill="#C6C6C6"/>
<rect width="5.0939" height="5" transform="matrix(1 0 0 -1 207.645 96)" fill="#C6C6C6"/>
<rect width="5.0939" height="5" transform="matrix(1 0 0 -1 24.2617 96)" fill="#C6C6C6"/>
<rect width="5.0939" height="5" transform="matrix(1 0 0 -1 43.6211 96)" fill="#C6C6C6"/>
<rect width="5.0939" height="5" transform="matrix(1 0 0 -1 62.9766 96)" fill="#C6C6C6"/>
<rect width="5.0939" height="5" transform="matrix(1 0 0 -1 82.332 96)" fill="#C6C6C6"/>
<rect width="5.0939" height="5" transform="matrix(1 0 0 -1 101.691 96)" fill="#C6C6C6"/>
<rect width="5.0939" height="5" transform="matrix(1 0 0 -1 121.047 96)" fill="#C6C6C6"/>
<rect width="5.0939" height="5" transform="matrix(1 0 0 -1 140.402 96)" fill="#C6C6C6"/>
<rect width="5.0939" height="5" transform="matrix(1 0 0 -1 159.762 96)" fill="#C6C6C6"/>
<rect width="5.0939" height="5" transform="matrix(1 0 0 -1 179.117 96)" fill="#C6C6C6"/>
<rect width="5.0939" height="5" transform="matrix(1 0 0 -1 198.473 96)" fill="#C6C6C6"/>
<rect width="5.0939" height="5" transform="matrix(1 0 0 -1 217.832 96)" fill="#C6C6C6"/>
<rect width="4.07512" height="5" transform="matrix(1 0 0 -1 10 96)" fill="#B5B5B5"/>
<rect width="5.0939" height="5" transform="matrix(1 0 0 -1 19.168 96)" fill="#B5B5B5"/>
<rect width="5.0939" height="5" transform="matrix(1 0 0 -1 38.5273 96)" fill="#B5B5B5"/>
<rect width="5.0939" height="5" transform="matrix(1 0 0 -1 57.8828 96)" fill="#B5B5B5"/>
<rect width="5.0939" height="5" transform="matrix(1 0 0 -1 77.2383 96)" fill="#B5B5B5"/>
<rect width="5.0939" height="5" transform="matrix(1 0 0 -1 96.5977 96)" fill="#B5B5B5"/>
<rect width="5.0939" height="5" transform="matrix(1 0 0 -1 115.953 96)" fill="#B5B5B5"/>
<rect width="5.0939" height="5" transform="matrix(1 0 0 -1 135.309 96)" fill="#B5B5B5"/>
<rect width="5.0939" height="5" transform="matrix(1 0 0 -1 154.668 96)" fill="#B5B5B5"/>
<rect width="5.0939" height="5" transform="matrix(1 0 0 -1 174.023 96)" fill="#B5B5B5"/>
<rect width="5.0939" height="5" transform="matrix(1 0 0 -1 193.379 96)" fill="#B5B5B5"/>
<rect width="5.0939" height="5" transform="matrix(1 0 0 -1 212.738 96)" fill="#B5B5B5"/>
<rect width="4.07512" height="5" transform="matrix(1 0 0 -1 29.3555 96)" fill="#B5B5B5"/>
<rect width="4.07512" height="5" transform="matrix(1 0 0 -1 48.7148 96)" fill="#B5B5B5"/>
<rect width="4.07512" height="5" transform="matrix(1 0 0 -1 68.0703 96)" fill="#B5B5B5"/>
<rect width="4.07512" height="5" transform="matrix(1 0 0 -1 87.4258 96)" fill="#B5B5B5"/>
<rect width="4.07512" height="5" transform="matrix(1 0 0 -1 106.785 96)" fill="#B5B5B5"/>
<rect width="4.07512" height="5" transform="matrix(1 0 0 -1 126.141 96)" fill="#B5B5B5"/>
<rect width="4.07512" height="5" transform="matrix(1 0 0 -1 145.5 96)" fill="#B5B5B5"/>
<rect width="4.07512" height="5" transform="matrix(1 0 0 -1 164.855 96)" fill="#B5B5B5"/>
<rect width="4.07512" height="5" transform="matrix(1 0 0 -1 184.211 96)" fill="#B5B5B5"/>
<rect width="4.07512" height="5" transform="matrix(1 0 0 -1 203.566 96)" fill="#B5B5B5"/>
<rect width="4.07512" height="5" transform="matrix(1 0 0 -1 222.926 96)" fill="#B5B5B5"/>
<rect width="5.0939" height="5" transform="matrix(1 0 0 -1 14.0742 101)" fill="#B5B5B5"/>
<rect width="5.0939" height="5" transform="matrix(1 0 0 -1 33.4336 101)" fill="#B5B5B5"/>
<rect width="5.0939" height="5" transform="matrix(1 0 0 -1 52.7891 101)" fill="#B5B5B5"/>
<rect width="5.0939" height="5" transform="matrix(1 0 0 -1 72.1445 101)" fill="#B5B5B5"/>
<rect width="5.0939" height="5" transform="matrix(1 0 0 -1 91.5039 101)" fill="#B5B5B5"/>
<rect width="5.0939" height="5" transform="matrix(1 0 0 -1 110.859 101)" fill="#B5B5B5"/>
<rect width="5.0939" height="5" transform="matrix(1 0 0 -1 130.215 101)" fill="#B5B5B5"/>
<rect width="5.0939" height="5" transform="matrix(1 0 0 -1 149.574 101)" fill="#B5B5B5"/>
<rect width="5.0939" height="5" transform="matrix(1 0 0 -1 168.93 101)" fill="#B5B5B5"/>
<rect width="5.0939" height="5" transform="matrix(1 0 0 -1 188.285 101)" fill="#B5B5B5"/>
<rect width="5.0939" height="5" transform="matrix(1 0 0 -1 207.645 101)" fill="#B5B5B5"/>
<rect width="5.0939" height="5" transform="matrix(1 0 0 -1 14.0742 91)" fill="#B5B5B5"/>
<rect width="5.0939" height="5" transform="matrix(1 0 0 -1 33.4336 91)" fill="#B5B5B5"/>
<rect width="5.0939" height="5" transform="matrix(1 0 0 -1 52.7891 91)" fill="#B5B5B5"/>
<rect width="5.0939" height="5" transform="matrix(1 0 0 -1 72.1445 91)" fill="#B5B5B5"/>
<rect width="5.0939" height="5" transform="matrix(1 0 0 -1 91.5039 91)" fill="#B5B5B5"/>
<rect width="5.0939" height="5" transform="matrix(1 0 0 -1 110.859 91)" fill="#B5B5B5"/>
<rect width="5.0939" height="5" transform="matrix(1 0 0 -1 130.215 91)" fill="#B5B5B5"/>
<rect width="5.0939" height="5" transform="matrix(1 0 0 -1 149.574 91)" fill="#B5B5B5"/>
<rect width="5.0939" height="5" transform="matrix(1 0 0 -1 168.93 91)" fill="#B5B5B5"/>
<rect width="5.0939" height="5" transform="matrix(1 0 0 -1 188.285 91)" fill="#B5B5B5"/>
<rect width="5.0939" height="5" transform="matrix(1 0 0 -1 207.645 91)" fill="#B5B5B5"/>
<rect width="5.0939" height="5" transform="matrix(1 0 0 -1 24.2617 101)" fill="#B5B5B5"/>
<rect width="5.0939" height="5" transform="matrix(1 0 0 -1 43.6211 101)" fill="#B5B5B5"/>
<rect width="5.0939" height="5" transform="matrix(1 0 0 -1 62.9766 101)" fill="#B5B5B5"/>
<rect width="5.0939" height="5" transform="matrix(1 0 0 -1 82.332 101)" fill="#B5B5B5"/>
<rect width="5.0939" height="5" transform="matrix(1 0 0 -1 101.691 101)" fill="#B5B5B5"/>
<rect width="5.0939" height="5" transform="matrix(1 0 0 -1 121.047 101)" fill="#B5B5B5"/>
<rect width="5.0939" height="5" transform="matrix(1 0 0 -1 140.402 101)" fill="#B5B5B5"/>
<rect width="5.0939" height="5" transform="matrix(1 0 0 -1 159.762 101)" fill="#B5B5B5"/>
<rect width="5.0939" height="5" transform="matrix(1 0 0 -1 179.117 101)" fill="#B5B5B5"/>
<rect width="5.0939" height="5" transform="matrix(1 0 0 -1 198.473 101)" fill="#B5B5B5"/>
<rect width="5.0939" height="5" transform="matrix(1 0 0 -1 217.832 101)" fill="#B5B5B5"/>
<rect width="5.0939" height="5" transform="matrix(1 0 0 -1 24.2617 91)" fill="#B5B5B5"/>
<rect width="5.0939" height="5" transform="matrix(1 0 0 -1 43.6211 91)" fill="#B5B5B5"/>
<rect width="5.0939" height="5" transform="matrix(1 0 0 -1 62.9766 91)" fill="#B5B5B5"/>
<rect width="5.0939" height="5" transform="matrix(1 0 0 -1 82.332 91)" fill="#B5B5B5"/>
<rect width="5.0939" height="5" transform="matrix(1 0 0 -1 101.691 91)" fill="#B5B5B5"/>
<rect width="5.0939" height="5" transform="matrix(1 0 0 -1 121.047 91)" fill="#B5B5B5"/>
<rect width="5.0939" height="5" transform="matrix(1 0 0 -1 140.402 91)" fill="#B5B5B5"/>
<rect width="5.0939" height="5" transform="matrix(1 0 0 -1 159.762 91)" fill="#B5B5B5"/>
<rect width="5.0939" height="5" transform="matrix(1 0 0 -1 179.117 91)" fill="#B5B5B5"/>
<rect width="5.0939" height="5" transform="matrix(1 0 0 -1 198.473 91)" fill="#B5B5B5"/>
<rect width="5.0939" height="5" transform="matrix(1 0 0 -1 217.832 91)" fill="#B5B5B5"/>
<rect width="4.09434" height="4" transform="matrix(1 0 0 -1 10 124)" fill="#B5B5B5"/>
<rect width="5.11792" height="4" transform="matrix(1 0 0 -1 19.2109 124)" fill="#B5B5B5"/>
<rect width="5.11792" height="4" transform="matrix(1 0 0 -1 48.8945 124)" fill="#B5B5B5"/>
<rect width="5.11792" height="4" transform="matrix(1 0 0 -1 78.5781 124)" fill="#B5B5B5"/>
<rect width="5.11792" height="4" transform="matrix(1 0 0 -1 108.266 124)" fill="#B5B5B5"/>
<rect width="5.11792" height="4" transform="matrix(1 0 0 -1 137.949 124)" fill="#B5B5B5"/>
<rect width="5.11792" height="4" transform="matrix(1 0 0 -1 167.633 124)" fill="#B5B5B5"/>
<rect width="5.11792" height="4" transform="matrix(1 0 0 -1 197.316 124)" fill="#B5B5B5"/>
<rect width="5.11792" height="4" transform="matrix(1 0 0 -1 38.6602 124)" fill="#B5B5B5"/>
<rect width="5.11792" height="4" transform="matrix(1 0 0 -1 68.3438 124)" fill="#B5B5B5"/>
<rect width="5.11792" height="4" transform="matrix(1 0 0 -1 98.0273 124)" fill="#B5B5B5"/>
<rect width="5.11792" height="4" transform="matrix(1 0 0 -1 127.711 124)" fill="#B5B5B5"/>
<rect width="5.11792" height="4" transform="matrix(1 0 0 -1 157.395 124)" fill="#B5B5B5"/>
<rect width="5.11792" height="4" transform="matrix(1 0 0 -1 187.078 124)" fill="#B5B5B5"/>
<rect width="5.11792" height="4" transform="matrix(1 0 0 -1 216.766 124)" fill="#B5B5B5"/>
<rect width="4.09434" height="4" transform="matrix(1 0 0 -1 29.4492 124)" fill="#B5B5B5"/>
<rect width="4.09434" height="4" transform="matrix(1 0 0 -1 59.1328 124)" fill="#B5B5B5"/>
<rect width="4.09434" height="4" transform="matrix(1 0 0 -1 88.8164 124)" fill="#B5B5B5"/>
<rect width="4.09434" height="4" transform="matrix(1 0 0 -1 118.5 124)" fill="#B5B5B5"/>
<rect width="4.09434" height="4" transform="matrix(1 0 0 -1 148.184 124)" fill="#B5B5B5"/>
<rect width="4.09434" height="4" transform="matrix(1 0 0 -1 177.867 124)" fill="#B5B5B5"/>
<rect width="4.09434" height="4" transform="matrix(1 0 0 -1 207.551 124)" fill="#B5B5B5"/>
<rect width="5.11792" height="5" transform="matrix(1 0 0 -1 14.0938 120)" fill="#B5B5B5"/>
<rect width="5.11792" height="5" transform="matrix(1 0 0 -1 43.7773 120)" fill="#B5B5B5"/>
<rect width="5.11792" height="5" transform="matrix(1 0 0 -1 73.4609 120)" fill="#B5B5B5"/>
<rect width="5.11792" height="5" transform="matrix(1 0 0 -1 103.145 120)" fill="#B5B5B5"/>
<rect width="5.11792" height="5" transform="matrix(1 0 0 -1 132.828 120)" fill="#B5B5B5"/>
<rect width="5.11792" height="5" transform="matrix(1 0 0 -1 162.516 120)" fill="#B5B5B5"/>
<rect width="5.11792" height="5" transform="matrix(1 0 0 -1 192.199 120)" fill="#B5B5B5"/>
<rect width="5.11792" height="5" transform="matrix(1 0 0 -1 221.883 120)" fill="#B5B5B5"/>
<rect width="5.11792" height="5" transform="matrix(1 0 0 -1 24.3281 120)" fill="#B5B5B5"/>
<rect width="5.11792" height="5" transform="matrix(1 0 0 -1 54.0156 120)" fill="#B5B5B5"/>
<rect width="5.11792" height="5" transform="matrix(1 0 0 -1 83.6992 120)" fill="#B5B5B5"/>
<rect width="5.11792" height="5" transform="matrix(1 0 0 -1 113.383 120)" fill="#B5B5B5"/>
<rect width="5.11792" height="5" transform="matrix(1 0 0 -1 143.066 120)" fill="#B5B5B5"/>
<rect width="5.11792" height="5" transform="matrix(1 0 0 -1 172.75 120)" fill="#B5B5B5"/>
<rect width="5.11792" height="5" transform="matrix(1 0 0 -1 202.434 120)" fill="#B5B5B5"/>
<rect width="5.11792" height="5" transform="matrix(1 0 0 -1 33.543 120)" fill="#B5B5B5"/>
<rect width="5.11792" height="5" transform="matrix(1 0 0 -1 63.2266 120)" fill="#B5B5B5"/>
<rect width="5.11792" height="5" transform="matrix(1 0 0 -1 92.9102 120)" fill="#B5B5B5"/>
<rect width="5.11792" height="5" transform="matrix(1 0 0 -1 122.594 120)" fill="#B5B5B5"/>
<rect width="5.11792" height="5" transform="matrix(1 0 0 -1 152.277 120)" fill="#B5B5B5"/>
<rect width="5.11792" height="5" transform="matrix(1 0 0 -1 181.961 120)" fill="#B5B5B5"/>
<rect width="5.11792" height="5" transform="matrix(1 0 0 -1 211.645 120)" fill="#B5B5B5"/>
<rect width="4.09434" height="5" transform="matrix(1 0 0 -1 10 120)" fill="#A5A5A5"/>
<rect width="5.11792" height="5" transform="matrix(1 0 0 -1 19.2109 120)" fill="#A5A5A5"/>
<rect width="5.11792" height="5" transform="matrix(1 0 0 -1 48.8945 120)" fill="#A5A5A5"/>
<rect width="5.11792" height="5" transform="matrix(1 0 0 -1 78.5781 120)" fill="#A5A5A5"/>
<rect width="5.11792" height="5" transform="matrix(1 0 0 -1 108.266 120)" fill="#A5A5A5"/>
<rect width="5.11792" height="5" transform="matrix(1 0 0 -1 137.949 120)" fill="#A5A5A5"/>
<rect width="5.11792" height="5" transform="matrix(1 0 0 -1 167.633 120)" fill="#A5A5A5"/>
<rect width="5.11792" height="5" transform="matrix(1 0 0 -1 197.316 120)" fill="#A5A5A5"/>
<rect width="5.11792" height="5" transform="matrix(1 0 0 -1 38.6602 120)" fill="#A5A5A5"/>
<rect width="5.11792" height="5" transform="matrix(1 0 0 -1 68.3438 120)" fill="#A5A5A5"/>
<rect width="5.11792" height="5" transform="matrix(1 0 0 -1 98.0273 120)" fill="#A5A5A5"/>
<rect width="5.11792" height="5" transform="matrix(1 0 0 -1 127.711 120)" fill="#A5A5A5"/>
<rect width="5.11792" height="5" transform="matrix(1 0 0 -1 157.395 120)" fill="#A5A5A5"/>
<rect width="5.11792" height="5" transform="matrix(1 0 0 -1 187.078 120)" fill="#A5A5A5"/>
<rect width="5.11792" height="5" transform="matrix(1 0 0 -1 216.766 120)" fill="#A5A5A5"/>
<rect width="4.09434" height="5" transform="matrix(1 0 0 -1 29.4492 120)" fill="#A5A5A5"/>
<rect width="4.09434" height="5" transform="matrix(1 0 0 -1 59.1328 120)" fill="#A5A5A5"/>
<rect width="4.09434" height="5" transform="matrix(1 0 0 -1 88.8164 120)" fill="#A5A5A5"/>
<rect width="4.09434" height="5" transform="matrix(1 0 0 -1 118.5 120)" fill="#A5A5A5"/>
<rect width="4.09434" height="5" transform="matrix(1 0 0 -1 148.184 120)" fill="#A5A5A5"/>
<rect width="4.09434" height="5" transform="matrix(1 0 0 -1 177.867 120)" fill="#A5A5A5"/>
<rect width="4.09434" height="5" transform="matrix(1 0 0 -1 207.551 120)" fill="#A5A5A5"/>
<rect width="5.11792" height="4" transform="matrix(1 0 0 -1 14.0938 124)" fill="#A5A5A5"/>
<rect width="5.11792" height="4" transform="matrix(1 0 0 -1 43.7773 124)" fill="#A5A5A5"/>
<rect width="5.11792" height="4" transform="matrix(1 0 0 -1 73.4609 124)" fill="#A5A5A5"/>
<rect width="5.11792" height="4" transform="matrix(1 0 0 -1 103.145 124)" fill="#A5A5A5"/>
<rect width="5.11792" height="4" transform="matrix(1 0 0 -1 132.828 124)" fill="#A5A5A5"/>
<rect width="5.11792" height="4" transform="matrix(1 0 0 -1 162.516 124)" fill="#A5A5A5"/>
<rect width="5.11792" height="4" transform="matrix(1 0 0 -1 192.199 124)" fill="#A5A5A5"/>
<rect width="5.11792" height="4" transform="matrix(1 0 0 -1 221.883 124)" fill="#A5A5A5"/>
<rect width="5.11792" height="4" transform="matrix(1 0 0 -1 24.3281 124)" fill="#A5A5A5"/>
<rect width="5.11792" height="4" transform="matrix(1 0 0 -1 54.0156 124)" fill="#A5A5A5"/>
<rect width="5.11792" height="4" transform="matrix(1 0 0 -1 83.6992 124)" fill="#A5A5A5"/>
<rect width="5.11792" height="4" transform="matrix(1 0 0 -1 113.383 124)" fill="#A5A5A5"/>
<rect width="5.11792" height="4" transform="matrix(1 0 0 -1 143.066 124)" fill="#A5A5A5"/>
<rect width="5.11792" height="4" transform="matrix(1 0 0 -1 172.75 124)" fill="#A5A5A5"/>
<rect width="5.11792" height="4" transform="matrix(1 0 0 -1 202.434 124)" fill="#A5A5A5"/>
<rect width="5.11792" height="4" transform="matrix(1 0 0 -1 33.543 124)" fill="#A5A5A5"/>
<rect width="5.11792" height="4" transform="matrix(1 0 0 -1 63.2266 124)" fill="#A5A5A5"/>
<rect width="5.11792" height="4" transform="matrix(1 0 0 -1 92.9102 124)" fill="#A5A5A5"/>
<rect width="5.11792" height="4" transform="matrix(1 0 0 -1 122.594 124)" fill="#A5A5A5"/>
<rect width="5.11792" height="4" transform="matrix(1 0 0 -1 152.277 124)" fill="#A5A5A5"/>
<rect width="5.11792" height="4" transform="matrix(1 0 0 -1 181.961 124)" fill="#A5A5A5"/>
<rect width="5.11792" height="4" transform="matrix(1 0 0 -1 211.645 124)" fill="#A5A5A5"/>
<rect width="217" height="19" transform="matrix(1 0 0 -1 10 58)" fill="#D6D6D6"/>
<rect width="217" height="14" transform="matrix(1 0 0 -1 10 86)" fill="#C6C6C6"/>
<rect width="217" height="14" transform="matrix(1 0 0 -1 10 115)" fill="#B5B5B5"/>
<rect width="217" height="14" transform="matrix(1 0 0 -1 10 24)" fill="#E7E7E7"/>
<rect width="19" height="19" transform="matrix(1 0 0 -1 52 58)" fill="#4A4A4A"/>
<rect width="19" height="19" transform="matrix(1 0 0 -1 71 77)" fill="#4A4A4A"/>
<rect width="19" height="19" transform="matrix(1 0 0 -1 90 96)" fill="#4A4A4A"/>
<rect width="20" height="19" transform="matrix(1 0 0 -1 109 115)" fill="#4A4A4A"/>
<rect width="19" height="19" transform="matrix(1 0 0 -1 129 96)" fill="#4A4A4A"/>
<rect width="19" height="19" transform="matrix(1 0 0 -1 148 77)" fill="#4A4A4A"/>
<rect width="19" height="19" transform="matrix(1 0 0 -1 167 58)" fill="#4A4A4A"/>
<rect width="19" height="5" transform="matrix(1 0 0 -1 148 58)" fill="#B5B5B5"/>
<rect width="19" height="5" transform="matrix(1 0 0 -1 129 77)" fill="#B5B5B5"/>
<rect width="20" height="5" transform="matrix(1 0 0 -1 109 96)" fill="#B5B5B5"/>
<rect width="19" height="5" transform="matrix(1 0 0 -1 90 77)" fill="#B5B5B5"/>
<rect width="19" height="5" transform="matrix(1 0 0 -1 71 58)" fill="#B5B5B5"/>
<rect width="19" height="5" transform="matrix(1 0 0 -1 148 53)" fill="#C6C6C6"/>
<rect width="19" height="5" transform="matrix(1 0 0 -1 129 72)" fill="#C6C6C6"/>
<rect width="20" height="5" transform="matrix(1 0 0 -1 109 91)" fill="#C6C6C6"/>
<rect width="19" height="5" transform="matrix(1 0 0 -1 90 72)" fill="#C6C6C6"/>
<rect width="19" height="5" transform="matrix(1 0 0 -1 71 53)" fill="#C6C6C6"/>
</svg>
