<svg width="237" height="156" viewBox="0 0 237 156" fill="none" xmlns="http://www.w3.org/2000/svg">
<rect x="2.5" y="2.5" width="232" height="151" fill="white" stroke="#7B7B7B" stroke-width="5"/>
<rect x="10" y="117" width="4.07512" height="5" fill="#D6D6D6"/>
<rect x="10" y="127" width="4.07512" height="5" fill="#D6D6D6"/>
<rect x="19.168" y="117" width="5.0939" height="5" fill="#D6D6D6"/>
<rect x="57.8828" y="117" width="5.0939" height="5" fill="#D6D6D6"/>
<rect x="96.5977" y="117" width="5.0939" height="5" fill="#D6D6D6"/>
<rect x="135.309" y="117" width="5.0939" height="5" fill="#D6D6D6"/>
<rect x="174.023" y="117" width="5.0939" height="5" fill="#D6D6D6"/>
<rect x="212.738" y="117" width="5.0939" height="5" fill="#D6D6D6"/>
<rect x="38.5273" y="117" width="5.0939" height="5" fill="#D6D6D6"/>
<rect x="77.2383" y="117" width="5.0939" height="5" fill="#D6D6D6"/>
<rect x="115.953" y="117" width="5.0939" height="5" fill="#D6D6D6"/>
<rect x="154.668" y="117" width="5.0939" height="5" fill="#D6D6D6"/>
<rect x="193.379" y="117" width="5.0939" height="5" fill="#D6D6D6"/>
<rect x="19.168" y="127" width="5.0939" height="5" fill="#D6D6D6"/>
<rect x="57.8828" y="127" width="5.0939" height="5" fill="#D6D6D6"/>
<rect x="96.5977" y="127" width="5.0939" height="5" fill="#D6D6D6"/>
<rect x="135.309" y="127" width="5.0939" height="5" fill="#D6D6D6"/>
<rect x="174.023" y="127" width="5.0939" height="5" fill="#D6D6D6"/>
<rect x="212.738" y="127" width="5.0939" height="5" fill="#D6D6D6"/>
<rect x="38.5273" y="127" width="5.0939" height="5" fill="#D6D6D6"/>
<rect x="77.2383" y="127" width="5.0939" height="5" fill="#D6D6D6"/>
<rect x="115.953" y="127" width="5.0939" height="5" fill="#D6D6D6"/>
<rect x="154.668" y="127" width="5.0939" height="5" fill="#D6D6D6"/>
<rect x="193.379" y="127" width="5.0939" height="5" fill="#D6D6D6"/>
<rect x="29.3555" y="117" width="4.07512" height="5" fill="#D6D6D6"/>
<rect x="68.0703" y="117" width="4.07512" height="5" fill="#D6D6D6"/>
<rect x="106.785" y="117" width="4.07512" height="5" fill="#D6D6D6"/>
<rect x="145.5" y="117" width="4.07512" height="5" fill="#D6D6D6"/>
<rect x="184.211" y="117" width="4.07512" height="5" fill="#D6D6D6"/>
<rect x="222.926" y="117" width="4.07512" height="5" fill="#D6D6D6"/>
<rect x="48.7148" y="117" width="4.07512" height="5" fill="#D6D6D6"/>
<rect x="87.4258" y="117" width="4.07512" height="5" fill="#D6D6D6"/>
<rect x="126.141" y="117" width="4.07512" height="5" fill="#D6D6D6"/>
<rect x="164.855" y="117" width="4.07512" height="5" fill="#D6D6D6"/>
<rect x="203.566" y="117" width="4.07512" height="5" fill="#D6D6D6"/>
<rect x="29.3555" y="127" width="4.07512" height="5" fill="#D6D6D6"/>
<rect x="68.0703" y="127" width="4.07512" height="5" fill="#D6D6D6"/>
<rect x="106.785" y="127" width="4.07512" height="5" fill="#D6D6D6"/>
<rect x="145.5" y="127" width="4.07512" height="5" fill="#D6D6D6"/>
<rect x="184.211" y="127" width="4.07512" height="5" fill="#D6D6D6"/>
<rect x="222.926" y="127" width="4.07512" height="5" fill="#D6D6D6"/>
<rect x="48.7148" y="127" width="4.07512" height="5" fill="#D6D6D6"/>
<rect x="87.4258" y="127" width="4.07512" height="5" fill="#D6D6D6"/>
<rect x="126.141" y="127" width="4.07512" height="5" fill="#D6D6D6"/>
<rect x="164.855" y="127" width="4.07512" height="5" fill="#D6D6D6"/>
<rect x="203.566" y="127" width="4.07512" height="5" fill="#D6D6D6"/>
<rect x="14.0742" y="122" width="5.0939" height="5" fill="#D6D6D6"/>
<rect x="52.7891" y="122" width="5.0939" height="5" fill="#D6D6D6"/>
<rect x="91.5039" y="122" width="5.0939" height="5" fill="#D6D6D6"/>
<rect x="130.215" y="122" width="5.0939" height="5" fill="#D6D6D6"/>
<rect x="168.93" y="122" width="5.0939" height="5" fill="#D6D6D6"/>
<rect x="207.645" y="122" width="5.0939" height="5" fill="#D6D6D6"/>
<rect x="33.4336" y="122" width="5.0939" height="5" fill="#D6D6D6"/>
<rect x="72.1445" y="122" width="5.0939" height="5" fill="#D6D6D6"/>
<rect x="110.859" y="122" width="5.0939" height="5" fill="#D6D6D6"/>
<rect x="149.574" y="122" width="5.0939" height="5" fill="#D6D6D6"/>
<rect x="188.285" y="122" width="5.0939" height="5" fill="#D6D6D6"/>
<rect x="24.2617" y="122" width="5.0939" height="5" fill="#D6D6D6"/>
<rect x="62.9766" y="122" width="5.0939" height="5" fill="#D6D6D6"/>
<rect x="101.691" y="122" width="5.0939" height="5" fill="#D6D6D6"/>
<rect x="140.402" y="122" width="5.0939" height="5" fill="#D6D6D6"/>
<rect x="179.117" y="122" width="5.0939" height="5" fill="#D6D6D6"/>
<rect x="217.832" y="122" width="5.0939" height="5" fill="#D6D6D6"/>
<rect x="43.6211" y="122" width="5.0939" height="5" fill="#D6D6D6"/>
<rect x="82.332" y="122" width="5.0939" height="5" fill="#D6D6D6"/>
<rect x="121.047" y="122" width="5.0939" height="5" fill="#D6D6D6"/>
<rect x="159.762" y="122" width="5.0939" height="5" fill="#D6D6D6"/>
<rect x="198.473" y="122" width="5.0939" height="5" fill="#D6D6D6"/>
<rect x="10" y="122" width="4.07512" height="5" fill="#C6C6C6"/>
<rect x="19.168" y="122" width="5.0939" height="5" fill="#C6C6C6"/>
<rect x="57.8828" y="122" width="5.0939" height="5" fill="#C6C6C6"/>
<rect x="96.5977" y="122" width="5.0939" height="5" fill="#C6C6C6"/>
<rect x="135.309" y="122" width="5.0939" height="5" fill="#C6C6C6"/>
<rect x="174.023" y="122" width="5.0939" height="5" fill="#C6C6C6"/>
<rect x="212.738" y="122" width="5.0939" height="5" fill="#C6C6C6"/>
<rect x="38.5273" y="122" width="5.0939" height="5" fill="#C6C6C6"/>
<rect x="77.2383" y="122" width="5.0939" height="5" fill="#C6C6C6"/>
<rect x="115.953" y="122" width="5.0939" height="5" fill="#C6C6C6"/>
<rect x="154.668" y="122" width="5.0939" height="5" fill="#C6C6C6"/>
<rect x="193.379" y="122" width="5.0939" height="5" fill="#C6C6C6"/>
<rect x="29.3555" y="122" width="4.07512" height="5" fill="#C6C6C6"/>
<rect x="68.0703" y="122" width="4.07512" height="5" fill="#C6C6C6"/>
<rect x="106.785" y="122" width="4.07512" height="5" fill="#C6C6C6"/>
<rect x="145.5" y="122" width="4.07512" height="5" fill="#C6C6C6"/>
<rect x="184.211" y="122" width="4.07512" height="5" fill="#C6C6C6"/>
<rect x="222.926" y="122" width="4.07512" height="5" fill="#C6C6C6"/>
<rect x="48.7148" y="122" width="4.07512" height="5" fill="#C6C6C6"/>
<rect x="87.4258" y="122" width="4.07512" height="5" fill="#C6C6C6"/>
<rect x="126.141" y="122" width="4.07512" height="5" fill="#C6C6C6"/>
<rect x="164.855" y="122" width="4.07512" height="5" fill="#C6C6C6"/>
<rect x="203.566" y="122" width="4.07512" height="5" fill="#C6C6C6"/>
<rect x="14.0742" y="117" width="5.0939" height="5" fill="#C6C6C6"/>
<rect x="52.7891" y="117" width="5.0939" height="5" fill="#C6C6C6"/>
<rect x="91.5039" y="117" width="5.0939" height="5" fill="#C6C6C6"/>
<rect x="130.215" y="117" width="5.0939" height="5" fill="#C6C6C6"/>
<rect x="168.93" y="117" width="5.0939" height="5" fill="#C6C6C6"/>
<rect x="207.645" y="117" width="5.0939" height="5" fill="#C6C6C6"/>
<rect x="33.4336" y="117" width="5.0939" height="5" fill="#C6C6C6"/>
<rect x="72.1445" y="117" width="5.0939" height="5" fill="#C6C6C6"/>
<rect x="110.859" y="117" width="5.0939" height="5" fill="#C6C6C6"/>
<rect x="149.574" y="117" width="5.0939" height="5" fill="#C6C6C6"/>
<rect x="188.285" y="117" width="5.0939" height="5" fill="#C6C6C6"/>
<rect x="14.0742" y="127" width="5.0939" height="5" fill="#C6C6C6"/>
<rect x="52.7891" y="127" width="5.0939" height="5" fill="#C6C6C6"/>
<rect x="91.5039" y="127" width="5.0939" height="5" fill="#C6C6C6"/>
<rect x="130.215" y="127" width="5.0939" height="5" fill="#C6C6C6"/>
<rect x="168.93" y="127" width="5.0939" height="5" fill="#C6C6C6"/>
<rect x="207.645" y="127" width="5.0939" height="5" fill="#C6C6C6"/>
<rect x="33.4336" y="127" width="5.0939" height="5" fill="#C6C6C6"/>
<rect x="72.1445" y="127" width="5.0939" height="5" fill="#C6C6C6"/>
<rect x="110.859" y="127" width="5.0939" height="5" fill="#C6C6C6"/>
<rect x="149.574" y="127" width="5.0939" height="5" fill="#C6C6C6"/>
<rect x="188.285" y="127" width="5.0939" height="5" fill="#C6C6C6"/>
<rect x="24.2617" y="117" width="5.0939" height="5" fill="#C6C6C6"/>
<rect x="62.9766" y="117" width="5.0939" height="5" fill="#C6C6C6"/>
<rect x="101.691" y="117" width="5.0939" height="5" fill="#C6C6C6"/>
<rect x="140.402" y="117" width="5.0939" height="5" fill="#C6C6C6"/>
<rect x="179.117" y="117" width="5.0939" height="5" fill="#C6C6C6"/>
<rect x="217.832" y="117" width="5.0939" height="5" fill="#C6C6C6"/>
<rect x="43.6211" y="117" width="5.0939" height="5" fill="#C6C6C6"/>
<rect x="82.332" y="117" width="5.0939" height="5" fill="#C6C6C6"/>
<rect x="121.047" y="117" width="5.0939" height="5" fill="#C6C6C6"/>
<rect x="159.762" y="117" width="5.0939" height="5" fill="#C6C6C6"/>
<rect x="198.473" y="117" width="5.0939" height="5" fill="#C6C6C6"/>
<rect x="24.2617" y="127" width="5.0939" height="5" fill="#C6C6C6"/>
<rect x="62.9766" y="127" width="5.0939" height="5" fill="#C6C6C6"/>
<rect x="101.691" y="127" width="5.0939" height="5" fill="#C6C6C6"/>
<rect x="140.402" y="127" width="5.0939" height="5" fill="#C6C6C6"/>
<rect x="179.117" y="127" width="5.0939" height="5" fill="#C6C6C6"/>
<rect x="217.832" y="127" width="5.0939" height="5" fill="#C6C6C6"/>
<rect x="43.6211" y="127" width="5.0939" height="5" fill="#C6C6C6"/>
<rect x="82.332" y="127" width="5.0939" height="5" fill="#C6C6C6"/>
<rect x="121.047" y="127" width="5.0939" height="5" fill="#C6C6C6"/>
<rect x="159.762" y="127" width="5.0939" height="5" fill="#C6C6C6"/>
<rect x="198.473" y="127" width="5.0939" height="5" fill="#C6C6C6"/>
<rect x="10" y="84" width="4.07512" height="5" fill="#E7E7E7"/>
<rect x="87.4258" y="84" width="4.07512" height="5" fill="#E7E7E7"/>
<rect x="164.855" y="84" width="4.07512" height="5" fill="#E7E7E7"/>
<rect x="10" y="94" width="4.07512" height="4" fill="#E7E7E7"/>
<rect x="87.4258" y="94" width="4.07512" height="4" fill="#E7E7E7"/>
<rect x="164.855" y="94" width="4.07512" height="4" fill="#E7E7E7"/>
<rect x="19.168" y="84" width="5.0939" height="5" fill="#E7E7E7"/>
<rect x="96.5977" y="84" width="5.0939" height="5" fill="#E7E7E7"/>
<rect x="174.023" y="84" width="5.0939" height="5" fill="#E7E7E7"/>
<rect x="38.5273" y="84" width="5.0939" height="5" fill="#E7E7E7"/>
<rect x="115.953" y="84" width="5.0939" height="5" fill="#E7E7E7"/>
<rect x="193.379" y="84" width="5.0939" height="5" fill="#E7E7E7"/>
<rect x="57.8828" y="84" width="5.0939" height="5" fill="#E7E7E7"/>
<rect x="135.309" y="84" width="5.0939" height="5" fill="#E7E7E7"/>
<rect x="212.738" y="84" width="5.0939" height="5" fill="#E7E7E7"/>
<rect x="77.2383" y="84" width="5.0939" height="5" fill="#E7E7E7"/>
<rect x="154.668" y="84" width="5.0939" height="5" fill="#E7E7E7"/>
<rect x="19.168" y="94" width="5.0939" height="4" fill="#E7E7E7"/>
<rect x="96.5977" y="94" width="5.0939" height="4" fill="#E7E7E7"/>
<rect x="174.023" y="94" width="5.0939" height="4" fill="#E7E7E7"/>
<rect x="38.5273" y="94" width="5.0939" height="4" fill="#E7E7E7"/>
<rect x="115.953" y="94" width="5.0939" height="4" fill="#E7E7E7"/>
<rect x="193.379" y="94" width="5.0939" height="4" fill="#E7E7E7"/>
<rect x="57.8828" y="94" width="5.0939" height="4" fill="#E7E7E7"/>
<rect x="135.309" y="94" width="5.0939" height="4" fill="#E7E7E7"/>
<rect x="212.738" y="94" width="5.0939" height="4" fill="#E7E7E7"/>
<rect x="77.2383" y="94" width="5.0939" height="4" fill="#E7E7E7"/>
<rect x="154.668" y="94" width="5.0939" height="4" fill="#E7E7E7"/>
<rect x="29.3555" y="84" width="4.07512" height="5" fill="#E7E7E7"/>
<rect x="106.785" y="84" width="4.07512" height="5" fill="#E7E7E7"/>
<rect x="184.211" y="84" width="4.07512" height="5" fill="#E7E7E7"/>
<rect x="48.7148" y="84" width="4.07512" height="5" fill="#E7E7E7"/>
<rect x="126.141" y="84" width="4.07512" height="5" fill="#E7E7E7"/>
<rect x="203.566" y="84" width="4.07512" height="5" fill="#E7E7E7"/>
<rect x="68.0703" y="84" width="4.07512" height="5" fill="#E7E7E7"/>
<rect x="145.5" y="84" width="4.07512" height="5" fill="#E7E7E7"/>
<rect x="222.926" y="84" width="4.07512" height="5" fill="#E7E7E7"/>
<rect x="29.3555" y="94" width="4.07512" height="4" fill="#E7E7E7"/>
<rect x="106.785" y="94" width="4.07512" height="4" fill="#E7E7E7"/>
<rect x="184.211" y="94" width="4.07512" height="4" fill="#E7E7E7"/>
<rect x="48.7148" y="94" width="4.07512" height="4" fill="#E7E7E7"/>
<rect x="126.141" y="94" width="4.07512" height="4" fill="#E7E7E7"/>
<rect x="203.566" y="94" width="4.07512" height="4" fill="#E7E7E7"/>
<rect x="68.0703" y="94" width="4.07512" height="4" fill="#E7E7E7"/>
<rect x="145.5" y="94" width="4.07512" height="4" fill="#E7E7E7"/>
<rect x="222.926" y="94" width="4.07512" height="4" fill="#E7E7E7"/>
<rect x="14.0742" y="89" width="5.0939" height="5" fill="#E7E7E7"/>
<rect x="91.5039" y="89" width="5.0939" height="5" fill="#E7E7E7"/>
<rect x="168.93" y="89" width="5.0939" height="5" fill="#E7E7E7"/>
<rect x="33.4336" y="89" width="5.0939" height="5" fill="#E7E7E7"/>
<rect x="110.859" y="89" width="5.0939" height="5" fill="#E7E7E7"/>
<rect x="188.285" y="89" width="5.0939" height="5" fill="#E7E7E7"/>
<rect x="52.7891" y="89" width="5.0939" height="5" fill="#E7E7E7"/>
<rect x="130.215" y="89" width="5.0939" height="5" fill="#E7E7E7"/>
<rect x="207.645" y="89" width="5.0939" height="5" fill="#E7E7E7"/>
<rect x="72.1445" y="89" width="5.0939" height="5" fill="#E7E7E7"/>
<rect x="149.574" y="89" width="5.0939" height="5" fill="#E7E7E7"/>
<rect x="24.2617" y="89" width="5.0939" height="5" fill="#E7E7E7"/>
<rect x="101.691" y="89" width="5.0939" height="5" fill="#E7E7E7"/>
<rect x="179.117" y="89" width="5.0939" height="5" fill="#E7E7E7"/>
<rect x="43.6211" y="89" width="5.0939" height="5" fill="#E7E7E7"/>
<rect x="121.047" y="89" width="5.0939" height="5" fill="#E7E7E7"/>
<rect x="198.473" y="89" width="5.0939" height="5" fill="#E7E7E7"/>
<rect x="62.9766" y="89" width="5.0939" height="5" fill="#E7E7E7"/>
<rect x="140.402" y="89" width="5.0939" height="5" fill="#E7E7E7"/>
<rect x="217.832" y="89" width="5.0939" height="5" fill="#E7E7E7"/>
<rect x="82.332" y="89" width="5.0939" height="5" fill="#E7E7E7"/>
<rect x="159.762" y="89" width="5.0939" height="5" fill="#E7E7E7"/>
<rect x="10" y="89" width="4.07512" height="5" fill="#D6D6D6"/>
<rect x="87.4258" y="89" width="4.07512" height="5" fill="#D6D6D6"/>
<rect x="164.855" y="89" width="4.07512" height="5" fill="#D6D6D6"/>
<rect x="19.168" y="89" width="5.0939" height="5" fill="#D6D6D6"/>
<rect x="96.5977" y="89" width="5.0939" height="5" fill="#D6D6D6"/>
<rect x="174.023" y="89" width="5.0939" height="5" fill="#D6D6D6"/>
<rect x="38.5273" y="89" width="5.0939" height="5" fill="#D6D6D6"/>
<rect x="115.953" y="89" width="5.0939" height="5" fill="#D6D6D6"/>
<rect x="193.379" y="89" width="5.0939" height="5" fill="#D6D6D6"/>
<rect x="57.8828" y="89" width="5.0939" height="5" fill="#D6D6D6"/>
<rect x="135.309" y="89" width="5.0939" height="5" fill="#D6D6D6"/>
<rect x="212.738" y="89" width="5.0939" height="5" fill="#D6D6D6"/>
<rect x="77.2383" y="89" width="5.0939" height="5" fill="#D6D6D6"/>
<rect x="154.668" y="89" width="5.0939" height="5" fill="#D6D6D6"/>
<rect x="29.3555" y="89" width="4.07512" height="5" fill="#D6D6D6"/>
<rect x="106.785" y="89" width="4.07512" height="5" fill="#D6D6D6"/>
<rect x="184.211" y="89" width="4.07512" height="5" fill="#D6D6D6"/>
<rect x="48.7148" y="89" width="4.07512" height="5" fill="#D6D6D6"/>
<rect x="126.141" y="89" width="4.07512" height="5" fill="#D6D6D6"/>
<rect x="203.566" y="89" width="4.07512" height="5" fill="#D6D6D6"/>
<rect x="68.0703" y="89" width="4.07512" height="5" fill="#D6D6D6"/>
<rect x="145.5" y="89" width="4.07512" height="5" fill="#D6D6D6"/>
<rect x="222.926" y="89" width="4.07512" height="5" fill="#D6D6D6"/>
<rect x="14.0742" y="84" width="5.0939" height="5" fill="#D6D6D6"/>
<rect x="91.5039" y="84" width="5.0939" height="5" fill="#D6D6D6"/>
<rect x="168.93" y="84" width="5.0939" height="5" fill="#D6D6D6"/>
<rect x="33.4336" y="84" width="5.0939" height="5" fill="#D6D6D6"/>
<rect x="110.859" y="84" width="5.0939" height="5" fill="#D6D6D6"/>
<rect x="188.285" y="84" width="5.0939" height="5" fill="#D6D6D6"/>
<rect x="52.7891" y="84" width="5.0939" height="5" fill="#D6D6D6"/>
<rect x="130.215" y="84" width="5.0939" height="5" fill="#D6D6D6"/>
<rect x="207.645" y="84" width="5.0939" height="5" fill="#D6D6D6"/>
<rect x="72.1445" y="84" width="5.0939" height="5" fill="#D6D6D6"/>
<rect x="149.574" y="84" width="5.0939" height="5" fill="#D6D6D6"/>
<rect x="14.0742" y="94" width="5.0939" height="4" fill="#D6D6D6"/>
<rect x="91.5039" y="94" width="5.0939" height="4" fill="#D6D6D6"/>
<rect x="168.93" y="94" width="5.0939" height="4" fill="#D6D6D6"/>
<rect x="33.4336" y="94" width="5.0939" height="4" fill="#D6D6D6"/>
<rect x="110.859" y="94" width="5.0939" height="4" fill="#D6D6D6"/>
<rect x="188.285" y="94" width="5.0939" height="4" fill="#D6D6D6"/>
<rect x="52.7891" y="94" width="5.0939" height="4" fill="#D6D6D6"/>
<rect x="130.215" y="94" width="5.0939" height="4" fill="#D6D6D6"/>
<rect x="207.645" y="94" width="5.0939" height="4" fill="#D6D6D6"/>
<rect x="72.1445" y="94" width="5.0939" height="4" fill="#D6D6D6"/>
<rect x="149.574" y="94" width="5.0939" height="4" fill="#D6D6D6"/>
<rect x="24.2617" y="84" width="5.0939" height="5" fill="#D6D6D6"/>
<rect x="101.691" y="84" width="5.0939" height="5" fill="#D6D6D6"/>
<rect x="179.117" y="84" width="5.0939" height="5" fill="#D6D6D6"/>
<rect x="43.6211" y="84" width="5.0939" height="5" fill="#D6D6D6"/>
<rect x="121.047" y="84" width="5.0939" height="5" fill="#D6D6D6"/>
<rect x="198.473" y="84" width="5.0939" height="5" fill="#D6D6D6"/>
<rect x="62.9766" y="84" width="5.0939" height="5" fill="#D6D6D6"/>
<rect x="140.402" y="84" width="5.0939" height="5" fill="#D6D6D6"/>
<rect x="217.832" y="84" width="5.0939" height="5" fill="#D6D6D6"/>
<rect x="82.332" y="84" width="5.0939" height="5" fill="#D6D6D6"/>
<rect x="159.762" y="84" width="5.0939" height="5" fill="#D6D6D6"/>
<rect x="24.2617" y="94" width="5.0939" height="4" fill="#D6D6D6"/>
<rect x="101.691" y="94" width="5.0939" height="4" fill="#D6D6D6"/>
<rect x="179.117" y="94" width="5.0939" height="4" fill="#D6D6D6"/>
<rect x="43.6211" y="94" width="5.0939" height="4" fill="#D6D6D6"/>
<rect x="121.047" y="94" width="5.0939" height="4" fill="#D6D6D6"/>
<rect x="198.473" y="94" width="5.0939" height="4" fill="#D6D6D6"/>
<rect x="62.9766" y="94" width="5.0939" height="4" fill="#D6D6D6"/>
<rect x="140.402" y="94" width="5.0939" height="4" fill="#D6D6D6"/>
<rect x="217.832" y="94" width="5.0939" height="4" fill="#D6D6D6"/>
<rect x="82.332" y="94" width="5.0939" height="4" fill="#D6D6D6"/>
<rect x="159.762" y="94" width="5.0939" height="4" fill="#D6D6D6"/>
<rect x="10" y="55" width="4.07512" height="5" fill="#F7F7F7"/>
<rect x="10" y="65" width="4.07512" height="5" fill="#F7F7F7"/>
<rect x="19.168" y="55" width="5.0939" height="5" fill="#F7F7F7"/>
<rect x="38.5273" y="55" width="5.0939" height="5" fill="#F7F7F7"/>
<rect x="57.8828" y="55" width="5.0939" height="5" fill="#F7F7F7"/>
<rect x="77.2383" y="55" width="5.0939" height="5" fill="#F7F7F7"/>
<rect x="96.5977" y="55" width="5.0939" height="5" fill="#F7F7F7"/>
<rect x="115.953" y="55" width="5.0939" height="5" fill="#F7F7F7"/>
<rect x="135.309" y="55" width="5.0939" height="5" fill="#F7F7F7"/>
<rect x="154.668" y="55" width="5.0939" height="5" fill="#F7F7F7"/>
<rect x="174.023" y="55" width="5.0939" height="5" fill="#F7F7F7"/>
<rect x="193.379" y="55" width="5.0939" height="5" fill="#F7F7F7"/>
<rect x="212.738" y="55" width="5.0939" height="5" fill="#F7F7F7"/>
<rect x="19.168" y="65" width="5.0939" height="5" fill="#F7F7F7"/>
<rect x="38.5273" y="65" width="5.0939" height="5" fill="#F7F7F7"/>
<rect x="57.8828" y="65" width="5.0939" height="5" fill="#F7F7F7"/>
<rect x="77.2383" y="65" width="5.0939" height="5" fill="#F7F7F7"/>
<rect x="96.5977" y="65" width="5.0939" height="5" fill="#F7F7F7"/>
<rect x="115.953" y="65" width="5.0939" height="5" fill="#F7F7F7"/>
<rect x="135.309" y="65" width="5.0939" height="5" fill="#F7F7F7"/>
<rect x="154.668" y="65" width="5.0939" height="5" fill="#F7F7F7"/>
<rect x="174.023" y="65" width="5.0939" height="5" fill="#F7F7F7"/>
<rect x="193.379" y="65" width="5.0939" height="5" fill="#F7F7F7"/>
<rect x="212.738" y="65" width="5.0939" height="5" fill="#F7F7F7"/>
<rect x="29.3555" y="55" width="4.07512" height="5" fill="#F7F7F7"/>
<rect x="48.7148" y="55" width="4.07512" height="5" fill="#F7F7F7"/>
<rect x="68.0703" y="55" width="4.07512" height="5" fill="#F7F7F7"/>
<rect x="87.4258" y="55" width="4.07512" height="5" fill="#F7F7F7"/>
<rect x="106.785" y="55" width="4.07512" height="5" fill="#F7F7F7"/>
<rect x="126.141" y="55" width="4.07512" height="5" fill="#F7F7F7"/>
<rect x="145.5" y="55" width="4.07512" height="5" fill="#F7F7F7"/>
<rect x="164.855" y="55" width="4.07512" height="5" fill="#F7F7F7"/>
<rect x="184.211" y="55" width="4.07512" height="5" fill="#F7F7F7"/>
<rect x="203.566" y="55" width="4.07512" height="5" fill="#F7F7F7"/>
<rect x="222.926" y="55" width="4.07512" height="5" fill="#F7F7F7"/>
<rect x="29.3555" y="65" width="4.07512" height="5" fill="#F7F7F7"/>
<rect x="48.7148" y="65" width="4.07512" height="5" fill="#F7F7F7"/>
<rect x="68.0703" y="65" width="4.07512" height="5" fill="#F7F7F7"/>
<rect x="87.4258" y="65" width="4.07512" height="5" fill="#F7F7F7"/>
<rect x="106.785" y="65" width="4.07512" height="5" fill="#F7F7F7"/>
<rect x="126.141" y="65" width="4.07512" height="5" fill="#F7F7F7"/>
<rect x="145.5" y="65" width="4.07512" height="5" fill="#F7F7F7"/>
<rect x="164.855" y="65" width="4.07512" height="5" fill="#F7F7F7"/>
<rect x="184.211" y="65" width="4.07512" height="5" fill="#F7F7F7"/>
<rect x="203.566" y="65" width="4.07512" height="5" fill="#F7F7F7"/>
<rect x="222.926" y="65" width="4.07512" height="5" fill="#F7F7F7"/>
<rect x="14.0742" y="60" width="5.0939" height="5" fill="#F7F7F7"/>
<rect x="33.4336" y="60" width="5.0939" height="5" fill="#F7F7F7"/>
<rect x="52.7891" y="60" width="5.0939" height="5" fill="#F7F7F7"/>
<rect x="72.1445" y="60" width="5.0939" height="5" fill="#F7F7F7"/>
<rect x="91.5039" y="60" width="5.0939" height="5" fill="#F7F7F7"/>
<rect x="110.859" y="60" width="5.0939" height="5" fill="#F7F7F7"/>
<rect x="130.215" y="60" width="5.0939" height="5" fill="#F7F7F7"/>
<rect x="149.574" y="60" width="5.0939" height="5" fill="#F7F7F7"/>
<rect x="168.93" y="60" width="5.0939" height="5" fill="#F7F7F7"/>
<rect x="188.285" y="60" width="5.0939" height="5" fill="#F7F7F7"/>
<rect x="207.645" y="60" width="5.0939" height="5" fill="#F7F7F7"/>
<rect x="24.2617" y="60" width="5.0939" height="5" fill="#F7F7F7"/>
<rect x="43.6211" y="60" width="5.0939" height="5" fill="#F7F7F7"/>
<rect x="62.9766" y="60" width="5.0939" height="5" fill="#F7F7F7"/>
<rect x="82.332" y="60" width="5.0939" height="5" fill="#F7F7F7"/>
<rect x="101.691" y="60" width="5.0939" height="5" fill="#F7F7F7"/>
<rect x="121.047" y="60" width="5.0939" height="5" fill="#F7F7F7"/>
<rect x="140.402" y="60" width="5.0939" height="5" fill="#F7F7F7"/>
<rect x="159.762" y="60" width="5.0939" height="5" fill="#F7F7F7"/>
<rect x="179.117" y="60" width="5.0939" height="5" fill="#F7F7F7"/>
<rect x="198.473" y="60" width="5.0939" height="5" fill="#F7F7F7"/>
<rect x="217.832" y="60" width="5.0939" height="5" fill="#F7F7F7"/>
<rect x="10" y="60" width="4.07512" height="5" fill="#E7E7E7"/>
<rect x="19.168" y="60" width="5.0939" height="5" fill="#E7E7E7"/>
<rect x="38.5273" y="60" width="5.0939" height="5" fill="#E7E7E7"/>
<rect x="57.8828" y="60" width="5.0939" height="5" fill="#E7E7E7"/>
<rect x="77.2383" y="60" width="5.0939" height="5" fill="#E7E7E7"/>
<rect x="96.5977" y="60" width="5.0939" height="5" fill="#E7E7E7"/>
<rect x="115.953" y="60" width="5.0939" height="5" fill="#E7E7E7"/>
<rect x="135.309" y="60" width="5.0939" height="5" fill="#E7E7E7"/>
<rect x="154.668" y="60" width="5.0939" height="5" fill="#E7E7E7"/>
<rect x="174.023" y="60" width="5.0939" height="5" fill="#E7E7E7"/>
<rect x="193.379" y="60" width="5.0939" height="5" fill="#E7E7E7"/>
<rect x="212.738" y="60" width="5.0939" height="5" fill="#E7E7E7"/>
<rect x="29.3555" y="60" width="4.07512" height="5" fill="#E7E7E7"/>
<rect x="48.7148" y="60" width="4.07512" height="5" fill="#E7E7E7"/>
<rect x="68.0703" y="60" width="4.07512" height="5" fill="#E7E7E7"/>
<rect x="87.4258" y="60" width="4.07512" height="5" fill="#E7E7E7"/>
<rect x="106.785" y="60" width="4.07512" height="5" fill="#E7E7E7"/>
<rect x="126.141" y="60" width="4.07512" height="5" fill="#E7E7E7"/>
<rect x="145.5" y="60" width="4.07512" height="5" fill="#E7E7E7"/>
<rect x="164.855" y="60" width="4.07512" height="5" fill="#E7E7E7"/>
<rect x="184.211" y="60" width="4.07512" height="5" fill="#E7E7E7"/>
<rect x="203.566" y="60" width="4.07512" height="5" fill="#E7E7E7"/>
<rect x="222.926" y="60" width="4.07512" height="5" fill="#E7E7E7"/>
<rect x="14.0742" y="55" width="5.0939" height="5" fill="#E7E7E7"/>
<rect x="33.4336" y="55" width="5.0939" height="5" fill="#E7E7E7"/>
<rect x="52.7891" y="55" width="5.0939" height="5" fill="#E7E7E7"/>
<rect x="72.1445" y="55" width="5.0939" height="5" fill="#E7E7E7"/>
<rect x="91.5039" y="55" width="5.0939" height="5" fill="#E7E7E7"/>
<rect x="110.859" y="55" width="5.0939" height="5" fill="#E7E7E7"/>
<rect x="130.215" y="55" width="5.0939" height="5" fill="#E7E7E7"/>
<rect x="149.574" y="55" width="5.0939" height="5" fill="#E7E7E7"/>
<rect x="168.93" y="55" width="5.0939" height="5" fill="#E7E7E7"/>
<rect x="188.285" y="55" width="5.0939" height="5" fill="#E7E7E7"/>
<rect x="207.645" y="55" width="5.0939" height="5" fill="#E7E7E7"/>
<rect x="14.0742" y="65" width="5.0939" height="5" fill="#E7E7E7"/>
<rect x="33.4336" y="65" width="5.0939" height="5" fill="#E7E7E7"/>
<rect x="52.7891" y="65" width="5.0939" height="5" fill="#E7E7E7"/>
<rect x="72.1445" y="65" width="5.0939" height="5" fill="#E7E7E7"/>
<rect x="91.5039" y="65" width="5.0939" height="5" fill="#E7E7E7"/>
<rect x="110.859" y="65" width="5.0939" height="5" fill="#E7E7E7"/>
<rect x="130.215" y="65" width="5.0939" height="5" fill="#E7E7E7"/>
<rect x="149.574" y="65" width="5.0939" height="5" fill="#E7E7E7"/>
<rect x="168.93" y="65" width="5.0939" height="5" fill="#E7E7E7"/>
<rect x="188.285" y="65" width="5.0939" height="5" fill="#E7E7E7"/>
<rect x="207.645" y="65" width="5.0939" height="5" fill="#E7E7E7"/>
<rect x="24.2617" y="55" width="5.0939" height="5" fill="#E7E7E7"/>
<rect x="43.6211" y="55" width="5.0939" height="5" fill="#E7E7E7"/>
<rect x="62.9766" y="55" width="5.0939" height="5" fill="#E7E7E7"/>
<rect x="82.332" y="55" width="5.0939" height="5" fill="#E7E7E7"/>
<rect x="101.691" y="55" width="5.0939" height="5" fill="#E7E7E7"/>
<rect x="121.047" y="55" width="5.0939" height="5" fill="#E7E7E7"/>
<rect x="140.402" y="55" width="5.0939" height="5" fill="#E7E7E7"/>
<rect x="159.762" y="55" width="5.0939" height="5" fill="#E7E7E7"/>
<rect x="179.117" y="55" width="5.0939" height="5" fill="#E7E7E7"/>
<rect x="198.473" y="55" width="5.0939" height="5" fill="#E7E7E7"/>
<rect x="217.832" y="55" width="5.0939" height="5" fill="#E7E7E7"/>
<rect x="24.2617" y="65" width="5.0939" height="5" fill="#E7E7E7"/>
<rect x="43.6211" y="65" width="5.0939" height="5" fill="#E7E7E7"/>
<rect x="62.9766" y="65" width="5.0939" height="5" fill="#E7E7E7"/>
<rect x="82.332" y="65" width="5.0939" height="5" fill="#E7E7E7"/>
<rect x="101.691" y="65" width="5.0939" height="5" fill="#E7E7E7"/>
<rect x="121.047" y="65" width="5.0939" height="5" fill="#E7E7E7"/>
<rect x="140.402" y="65" width="5.0939" height="5" fill="#E7E7E7"/>
<rect x="159.762" y="65" width="5.0939" height="5" fill="#E7E7E7"/>
<rect x="179.117" y="65" width="5.0939" height="5" fill="#E7E7E7"/>
<rect x="198.473" y="65" width="5.0939" height="5" fill="#E7E7E7"/>
<rect x="217.832" y="65" width="5.0939" height="5" fill="#E7E7E7"/>
<rect x="10" y="32" width="4.09434" height="4" fill="#F7F7F7"/>
<rect x="19.2109" y="32" width="5.11792" height="4" fill="#F7F7F7"/>
<rect x="48.8945" y="32" width="5.11792" height="4" fill="#F7F7F7"/>
<rect x="78.5781" y="32" width="5.11792" height="4" fill="#F7F7F7"/>
<rect x="108.266" y="32" width="5.11792" height="4" fill="#F7F7F7"/>
<rect x="137.949" y="32" width="5.11792" height="4" fill="#F7F7F7"/>
<rect x="167.633" y="32" width="5.11792" height="4" fill="#F7F7F7"/>
<rect x="197.316" y="32" width="5.11792" height="4" fill="#F7F7F7"/>
<rect x="38.6602" y="32" width="5.11792" height="4" fill="#F7F7F7"/>
<rect x="68.3438" y="32" width="5.11792" height="4" fill="#F7F7F7"/>
<rect x="98.0273" y="32" width="5.11792" height="4" fill="#F7F7F7"/>
<rect x="127.711" y="32" width="5.11792" height="4" fill="#F7F7F7"/>
<rect x="157.395" y="32" width="5.11792" height="4" fill="#F7F7F7"/>
<rect x="187.078" y="32" width="5.11792" height="4" fill="#F7F7F7"/>
<rect x="216.766" y="32" width="5.11792" height="4" fill="#F7F7F7"/>
<rect x="29.4492" y="32" width="4.09434" height="4" fill="#F7F7F7"/>
<rect x="59.1328" y="32" width="4.09434" height="4" fill="#F7F7F7"/>
<rect x="88.8164" y="32" width="4.09434" height="4" fill="#F7F7F7"/>
<rect x="118.5" y="32" width="4.09434" height="4" fill="#F7F7F7"/>
<rect x="148.184" y="32" width="4.09434" height="4" fill="#F7F7F7"/>
<rect x="177.867" y="32" width="4.09434" height="4" fill="#F7F7F7"/>
<rect x="207.551" y="32" width="4.09434" height="4" fill="#F7F7F7"/>
<rect x="14.0938" y="36" width="5.11792" height="5" fill="#F7F7F7"/>
<rect x="43.7773" y="36" width="5.11792" height="5" fill="#F7F7F7"/>
<rect x="73.4609" y="36" width="5.11792" height="5" fill="#F7F7F7"/>
<rect x="103.145" y="36" width="5.11792" height="5" fill="#F7F7F7"/>
<rect x="132.828" y="36" width="5.11792" height="5" fill="#F7F7F7"/>
<rect x="162.516" y="36" width="5.11792" height="5" fill="#F7F7F7"/>
<rect x="192.199" y="36" width="5.11792" height="5" fill="#F7F7F7"/>
<rect x="221.883" y="36" width="5.11792" height="5" fill="#F7F7F7"/>
<rect x="24.3281" y="36" width="5.11792" height="5" fill="#F7F7F7"/>
<rect x="54.0156" y="36" width="5.11792" height="5" fill="#F7F7F7"/>
<rect x="83.6992" y="36" width="5.11792" height="5" fill="#F7F7F7"/>
<rect x="113.383" y="36" width="5.11792" height="5" fill="#F7F7F7"/>
<rect x="143.066" y="36" width="5.11792" height="5" fill="#F7F7F7"/>
<rect x="172.75" y="36" width="5.11792" height="5" fill="#F7F7F7"/>
<rect x="202.434" y="36" width="5.11792" height="5" fill="#F7F7F7"/>
<rect x="33.543" y="36" width="5.11792" height="5" fill="#F7F7F7"/>
<rect x="63.2266" y="36" width="5.11792" height="5" fill="#F7F7F7"/>
<rect x="92.9102" y="36" width="5.11792" height="5" fill="#F7F7F7"/>
<rect x="122.594" y="36" width="5.11792" height="5" fill="#F7F7F7"/>
<rect x="152.277" y="36" width="5.11792" height="5" fill="#F7F7F7"/>
<rect x="181.961" y="36" width="5.11792" height="5" fill="#F7F7F7"/>
<rect x="211.645" y="36" width="5.11792" height="5" fill="#F7F7F7"/>
<rect x="10" y="36" width="4.09434" height="5" fill="white"/>
<rect x="19.2109" y="36" width="5.11792" height="5" fill="white"/>
<rect x="48.8945" y="36" width="5.11792" height="5" fill="white"/>
<rect x="78.5781" y="36" width="5.11792" height="5" fill="white"/>
<rect x="108.266" y="36" width="5.11792" height="5" fill="white"/>
<rect x="137.949" y="36" width="5.11792" height="5" fill="white"/>
<rect x="167.633" y="36" width="5.11792" height="5" fill="white"/>
<rect x="197.316" y="36" width="5.11792" height="5" fill="white"/>
<rect x="38.6602" y="36" width="5.11792" height="5" fill="white"/>
<rect x="68.3438" y="36" width="5.11792" height="5" fill="white"/>
<rect x="98.0273" y="36" width="5.11792" height="5" fill="white"/>
<rect x="127.711" y="36" width="5.11792" height="5" fill="white"/>
<rect x="157.395" y="36" width="5.11792" height="5" fill="white"/>
<rect x="187.078" y="36" width="5.11792" height="5" fill="white"/>
<rect x="216.766" y="36" width="5.11792" height="5" fill="white"/>
<rect x="29.4492" y="36" width="4.09434" height="5" fill="white"/>
<rect x="59.1328" y="36" width="4.09434" height="5" fill="white"/>
<rect x="88.8164" y="36" width="4.09434" height="5" fill="white"/>
<rect x="118.5" y="36" width="4.09434" height="5" fill="white"/>
<rect x="148.184" y="36" width="4.09434" height="5" fill="white"/>
<rect x="177.867" y="36" width="4.09434" height="5" fill="white"/>
<rect x="207.551" y="36" width="4.09434" height="5" fill="white"/>
<rect x="14.0938" y="32" width="5.11792" height="4" fill="white"/>
<rect x="43.7773" y="32" width="5.11792" height="4" fill="white"/>
<rect x="73.4609" y="32" width="5.11792" height="4" fill="white"/>
<rect x="103.145" y="32" width="5.11792" height="4" fill="white"/>
<rect x="132.828" y="32" width="5.11792" height="4" fill="white"/>
<rect x="162.516" y="32" width="5.11792" height="4" fill="white"/>
<rect x="192.199" y="32" width="5.11792" height="4" fill="white"/>
<rect x="221.883" y="32" width="5.11792" height="4" fill="white"/>
<rect x="24.3281" y="32" width="5.11792" height="4" fill="white"/>
<rect x="54.0156" y="32" width="5.11792" height="4" fill="white"/>
<rect x="83.6992" y="32" width="5.11792" height="4" fill="white"/>
<rect x="113.383" y="32" width="5.11792" height="4" fill="white"/>
<rect x="143.066" y="32" width="5.11792" height="4" fill="white"/>
<rect x="172.75" y="32" width="5.11792" height="4" fill="white"/>
<rect x="202.434" y="32" width="5.11792" height="4" fill="white"/>
<rect x="33.543" y="32" width="5.11792" height="4" fill="white"/>
<rect x="63.2266" y="32" width="5.11792" height="4" fill="white"/>
<rect x="92.9102" y="32" width="5.11792" height="4" fill="white"/>
<rect x="122.594" y="32" width="5.11792" height="4" fill="white"/>
<rect x="152.277" y="32" width="5.11792" height="4" fill="white"/>
<rect x="181.961" y="32" width="5.11792" height="4" fill="white"/>
<rect x="211.645" y="32" width="5.11792" height="4" fill="white"/>
<rect x="10" y="98" width="217" height="19" fill="#D6D6D6"/>
<rect x="10" y="70" width="217" height="14" fill="#E7E7E7"/>
<rect x="10" y="41" width="217" height="14" fill="#F7F7F7"/>
<rect x="10" y="132" width="217" height="14" fill="#C6C6C6"/>
<rect x="52" y="98" width="19" height="19" fill="#4A4A4A"/>
<rect x="71" y="79" width="19" height="19" fill="#4A4A4A"/>
<rect x="90" y="60" width="19" height="19" fill="#4A4A4A"/>
<rect x="109" y="41" width="20" height="19" fill="#4A4A4A"/>
<rect x="129" y="60" width="19" height="19" fill="#4A4A4A"/>
<rect x="148" y="79" width="19" height="19" fill="#4A4A4A"/>
<rect x="167" y="98" width="19" height="19" fill="#4A4A4A"/>
<rect x="148" y="98" width="19" height="5" fill="#B5B5B5"/>
<rect x="129" y="79" width="19" height="5" fill="#B5B5B5"/>
<rect x="109" y="60" width="20" height="5" fill="#B5B5B5"/>
<rect x="90" y="79" width="19" height="5" fill="#B5B5B5"/>
<rect x="71" y="98" width="19" height="5" fill="#B5B5B5"/>
<rect x="148" y="103" width="19" height="5" fill="#C6C6C6"/>
<rect x="129" y="84" width="19" height="5" fill="#C6C6C6"/>
<rect x="109" y="65" width="20" height="5" fill="#C6C6C6"/>
<rect x="90" y="84" width="19" height="5" fill="#C6C6C6"/>
<rect x="71" y="103" width="19" height="5" fill="#C6C6C6"/>
</svg>
